<svg width="42" height="41" viewBox="0 0 42 41" fill="none" xmlns="http://www.w3.org/2000/svg">
<path d="M16 14.6288V26.8112C16 26.9467 16.0368 27.0797 16.1068 27.1965C16.1769 27.3134 16.2774 27.4099 16.3982 27.476C16.519 27.5421 16.6556 27.5755 16.794 27.5726C16.9324 27.5698 17.0674 27.5309 17.1853 27.4599L27.2961 21.3687C27.4093 21.3006 27.5029 21.2052 27.5677 21.0916C27.6326 20.9781 27.6667 20.8501 27.6667 20.72C27.6667 20.5899 27.6326 20.4619 27.5677 20.3484C27.5029 20.2348 27.4093 20.1394 27.2961 20.0713L17.1853 13.9801C17.0674 13.9091 16.9324 13.8702 16.794 13.8674C16.6556 13.8645 16.519 13.8979 16.3982 13.964C16.2774 14.0301 16.1769 14.1266 16.1068 14.2434C16.0368 14.3603 16 14.4933 16 14.6288Z" fill="white"/>
<ellipse opacity="0.5" cx="21" cy="20.7201" rx="20" ry="19.5794" stroke="white"/>
</svg>
