<svg width="42" height="42" viewBox="0 0 42 42" fill="none" xmlns="http://www.w3.org/2000/svg">
<circle opacity="0.5" cx="21" cy="20.5605" r="20" stroke="white"/>
<g clip-path="url(#clip0_5004_4327)">
<path d="M25.2656 20.2988H23.1875C22.8855 20.2988 22.6406 20.054 22.6406 19.752C22.6406 19.4499 22.8855 19.2051 23.1875 19.2051H25.2656C26.1703 19.2051 26.9062 18.4691 26.9062 17.5645C26.9062 16.6291 26.2479 15.9238 25.375 15.9238C25.073 15.9238 24.8281 15.679 24.8281 15.377C24.8281 14.4723 24.0921 13.7363 23.1875 13.7363C23.0101 13.7363 22.8292 13.7705 22.6344 13.8407C22.4151 13.9198 22.1699 13.8513 22.0234 13.6699C21.4961 13.0171 20.7244 12.6426 19.9062 12.6426C18.3985 12.6426 17.1719 13.8692 17.1719 15.377C17.1719 15.679 16.927 15.9238 16.625 15.9238C15.7521 15.9238 15.0938 16.6291 15.0938 17.5645C15.0938 18.4691 15.8297 19.2051 16.7344 19.2051H18.8125C19.1145 19.2051 19.3594 19.4499 19.3594 19.752C19.3594 20.054 19.1145 20.2988 18.8125 20.2988H16.7344C15.2266 20.2988 14 19.0722 14 17.5645C14 16.8342 14.2602 16.1525 14.7326 15.645C15.1044 15.2457 15.5818 14.9827 16.1103 14.8794C16.355 13.0029 17.9641 11.5488 19.9062 11.5488C20.9343 11.5488 21.9076 11.9663 22.6283 12.7055C22.8168 12.6637 23.0038 12.6426 23.1875 12.6426C24.5244 12.6426 25.6404 13.607 25.876 14.8768C26.41 14.9782 26.8924 15.2423 27.2674 15.645C27.7398 16.1525 28 16.8342 28 17.5645C28 19.0722 26.7734 20.2988 25.2656 20.2988Z" fill="white"/>
<path d="M25.2656 20.2988H23.1875C22.8855 20.2988 22.6406 20.054 22.6406 19.752C22.6406 19.4499 22.8855 19.2051 23.1875 19.2051H25.2656C26.1703 19.2051 26.9062 18.4691 26.9062 17.5645C26.9062 16.6291 26.2479 15.9238 25.375 15.9238C25.073 15.9238 24.8281 15.679 24.8281 15.377C24.8281 14.4723 24.0921 13.7363 23.1875 13.7363C23.0101 13.7363 22.8292 13.7705 22.6344 13.8407C22.4151 13.9198 22.1699 13.8513 22.0234 13.6699C21.4961 13.0171 20.7244 12.6426 19.9062 12.6426C18.3985 12.6426 17.1719 13.8692 17.1719 15.377C17.1719 15.679 16.927 15.9238 16.625 15.9238C15.7521 15.9238 15.0938 16.6291 15.0938 17.5645C15.0938 18.4691 15.8297 19.2051 16.7344 19.2051H18.8125C19.1145 19.2051 19.3594 19.4499 19.3594 19.752C19.3594 20.054 19.1145 20.2988 18.8125 20.2988H16.7344C15.2266 20.2988 14 19.0722 14 17.5645C14 16.8342 14.2602 16.1525 14.7326 15.645C15.1044 15.2457 15.5818 14.9827 16.1103 14.8794C16.355 13.0029 17.9641 11.5488 19.9062 11.5488C20.9343 11.5488 21.9076 11.9663 22.6283 12.7055C22.8168 12.6637 23.0038 12.6426 23.1875 12.6426C24.5244 12.6426 25.6404 13.607 25.876 14.8768C26.41 14.9782 26.8924 15.2423 27.2674 15.645C27.7398 16.1525 28 16.8342 28 17.5645C28 19.0722 26.7734 20.2988 25.2656 20.2988Z" fill="white"/>
<path d="M23.0273 21.2246C22.8137 21.0111 22.4675 21.0111 22.2539 21.2246L21.5469 21.9317V16.4707C21.5469 16.1687 21.302 15.9238 21 15.9238C20.6979 15.9238 20.4531 16.1687 20.4531 16.4707V21.9317L19.7461 21.2246C19.5325 21.0111 19.1862 21.0111 18.9727 21.2246C18.7591 21.4382 18.7591 21.7845 18.9727 21.998L20.2266 23.252C20.4361 23.4615 20.7102 23.5678 20.9855 23.5715C20.9904 23.5716 20.9951 23.5722 21 23.5722C21.0049 23.5722 21.0097 23.5716 21.0145 23.5715C21.2898 23.5679 21.5639 23.4615 21.7735 23.252L23.0274 21.998C23.2409 21.7845 23.2409 21.4382 23.0273 21.2246Z" fill="white"/>
</g>
<defs>
<clipPath id="clip0_5004_4327">
<rect width="14" height="14" fill="white" transform="translate(14 10.5605)"/>
</clipPath>
</defs>
</svg>
