<svg width="50" height="50" viewBox="0 0 50 50" fill="none" xmlns="http://www.w3.org/2000/svg">
<path d="M44.4922 24.8047C36.0937 20.1172 30.8789 11.2402 30.8789 1.62109V1.5625H30.4883C30.4883 11.2207 25.2441 20.1172 16.7969 24.7852L16.4062 25L17.0898 25.3809C25.2344 29.9512 30.293 38.584 30.293 47.9199V48.4375H30.6836C30.6836 38.7793 35.9277 29.8828 44.375 25.2148L44.7949 24.9805L44.4922 24.8047Z" fill="white"/>
<path d="M17.4805 18.5059L17.7734 18.3398L17.4805 18.1738C13.9062 16.084 11.6895 12.2168 11.6895 8.07617H11.2988C11.2988 12.2168 9.08203 16.084 5.50781 18.1738L5.21484 18.3398L5.50781 18.5059C9.08203 20.5957 11.2988 24.4629 11.2988 28.6035H11.6895C11.6895 24.4629 13.9062 20.5957 17.4805 18.5059Z" fill="white"/>
<path d="M19.1309 30.4492H18.7402C18.7402 33.4766 17.1191 36.3086 14.502 37.832L14.209 37.998L14.502 38.1641C17.1191 39.6875 18.7402 42.5195 18.7402 45.5469H19.1309C19.1309 42.5195 20.752 39.6875 23.3691 38.1641L23.6621 37.998L23.3691 37.832C20.7617 36.3086 19.1309 33.4766 19.1309 30.4492Z" fill="white"/>
</svg>
