<svg width="50" height="50" viewBox="0 0 50 50" fill="none" xmlns="http://www.w3.org/2000/svg">
<path d="M0 36.6224C0.360475 35.9227 0.932994 35.6895 1.71756 35.6895C17.2392 35.6895 32.7608 35.6895 48.2824 35.6895C49.067 35.6895 49.6395 35.9015 50 36.6224V42.0084C49.7031 42.3052 49.4063 42.6021 49.1094 42.899H0.890585C0.593723 42.6021 0.296862 42.3052 0 42.0084C0 40.206 0 38.4248 0 36.6224ZM18.3206 36.8981H7.27311C7.27311 37.0889 7.27311 37.2374 7.27311 37.407C7.27311 38.0219 7.27311 38.6369 7.27311 39.2518C7.27311 39.6123 7.10348 39.8667 6.7218 39.8879C6.38253 39.9091 6.14928 39.6547 6.12807 39.2518C6.12807 39.0822 6.12807 38.9125 6.12807 38.7641C6.12807 38.1492 6.12807 37.5554 6.12807 36.9405C6.02205 36.9193 5.95844 36.8981 5.91603 36.8981C4.45293 36.8981 2.98982 36.8981 1.52672 36.8981C1.18745 36.8981 1.16624 37.0889 1.16624 37.3222C1.16624 38.6157 1.18745 39.9303 1.16624 41.2238C1.16624 41.6903 1.29347 41.7963 1.73876 41.7963C5.06785 41.7963 8.41815 41.7963 11.7472 41.7963C11.8957 41.7963 12.0441 41.7963 12.2137 41.7963C12.2137 41.6267 12.2349 41.4783 12.2349 41.3298C12.2349 40.6937 12.2349 40.0788 12.2349 39.4426C12.2349 39.0398 12.4894 38.7641 12.8287 38.7853C13.2316 38.8065 13.4012 39.061 13.4012 39.4426C13.4012 39.6123 13.4012 39.7819 13.4012 39.9303C13.4012 40.5453 13.4012 41.139 13.4012 41.7539H24.4487C24.4487 41.4995 24.4487 41.3086 24.4487 41.0966C24.4487 40.5029 24.4487 39.9303 24.4487 39.3366C24.4487 38.9973 24.6607 38.7641 25.0212 38.7641C25.3817 38.7641 25.5725 38.9761 25.5937 39.3154C25.5937 39.485 25.5937 39.6547 25.5937 39.8031C25.5937 40.4392 25.5937 41.0754 25.5937 41.7327H36.6412C36.6412 41.5631 36.6412 41.4358 36.6412 41.2874C36.6412 40.6301 36.6412 39.9727 36.6412 39.3154C36.6412 38.9761 36.8533 38.7429 37.2137 38.7429C37.5742 38.7429 37.7651 38.9549 37.7863 39.2942C37.7863 39.4638 37.7863 39.6335 37.7863 39.7819C37.7863 40.418 37.7863 41.0542 37.7863 41.7115C37.9135 41.7115 37.9771 41.7539 38.0619 41.7539C41.5394 41.7539 44.9958 41.7539 48.4733 41.7539C48.7701 41.7539 48.855 41.6267 48.855 41.351C48.855 39.994 48.855 38.6369 48.855 37.2586C48.855 36.8981 48.7065 36.8345 48.3885 36.8345C47.0102 36.8345 45.6319 36.8345 44.2536 36.8345C44.1476 36.8345 44.0416 36.8557 43.8931 36.8769C43.8931 37.0465 43.8931 37.2162 43.8931 37.3646C43.8931 37.9795 43.8931 38.5945 43.8931 39.2094C43.8931 39.5699 43.7235 39.8243 43.3418 39.8455C43.0025 39.8667 42.7481 39.6123 42.7481 39.2094C42.7481 38.7641 42.7481 38.3188 42.7481 37.8735C42.7481 37.5342 42.7481 37.195 42.7481 36.8769H31.6794C31.6794 37.0677 31.6794 37.2374 31.6794 37.3858C31.6794 38.0219 31.6794 38.6369 31.6794 39.273C31.6794 39.6123 31.4885 39.8455 31.1281 39.8455C30.7676 39.8455 30.5768 39.6335 30.5343 39.2942C30.5343 39.1246 30.5343 38.9761 30.5343 38.8065C30.5343 38.1704 30.5343 37.5342 30.5343 36.8769H19.4869C19.4869 37.6827 19.4869 38.4248 19.4869 39.1882C19.4869 39.6123 19.2324 39.8879 18.8719 39.8455C18.469 39.8031 18.3418 39.5275 18.3418 39.1458C18.3418 38.4036 18.3418 37.6615 18.3418 36.8557L18.3206 36.8981Z" fill="white"/>
<path d="M26.0409 7C26.6982 7.14843 27.3555 7.25445 27.9917 7.4665C30.9179 8.4207 33.0383 10.3079 34.2682 13.1493C34.6074 13.9338 34.9255 14.7184 35.2648 15.5666C35.6465 15.4182 35.9857 15.2697 36.3462 15.1425C37.1732 14.8032 37.7881 15.0577 38.1274 15.8634C38.3818 16.4784 38.6575 17.1145 38.8907 17.7294C39.1664 18.408 38.9119 19.0229 38.2546 19.3198C37.8729 19.4894 37.4912 19.6378 37.046 19.8287C37.3004 20.4224 37.5337 20.9949 37.7669 21.5674C38.2334 22.6913 38.1486 23.0093 37.152 23.6879C37.3004 24.0695 37.47 24.4512 37.6397 24.8541C37.7669 24.8117 37.8729 24.7905 37.9789 24.7693C38.5939 24.5997 39.124 24.8117 39.3784 25.4054C39.6541 25.9992 39.8873 26.6141 40.1206 27.229C40.3538 27.8651 40.1206 28.4377 39.4845 28.7133C37.6821 29.4767 35.8797 30.2188 34.0561 30.961C33.3564 31.2366 32.7839 30.9822 32.487 30.2824C32.2962 29.8371 32.1265 29.3919 31.9357 28.9466C31.4904 27.8651 31.5964 27.5471 32.5718 26.9321C32.4234 26.5505 32.2538 26.1688 32.1053 25.8083C30.8119 25.9992 30.7907 25.9779 30.0697 24.536C28.9035 24.8965 29.1155 23.7091 28.649 23.2214C27.9493 23.5182 27.2283 23.7939 26.5286 24.112C26.465 24.1332 26.3801 24.218 26.3589 24.3028C26.2317 24.7905 25.85 24.9601 25.4471 25.1298C21.0366 26.9533 16.6261 28.7769 12.2368 30.6005C10.7313 31.2154 9.16215 30.6005 8.56843 29.1798C7.97471 27.7803 8.67445 26.19 10.1588 25.5751C14.6329 23.7091 19.107 21.8643 23.5812 20.0195C23.8568 19.9135 24.2173 19.9983 24.5141 19.9983C24.6202 19.9983 24.7474 20.0619 24.8534 20.0195C25.5532 19.7438 26.2529 19.447 27.0163 19.1289C26.9314 18.8745 26.8466 18.6412 26.7406 18.408C26.4437 17.6658 26.4437 17.6446 27.0587 17.1569C26.889 16.6268 26.465 16.0543 26.889 15.5242C27.2283 15.1213 27.7796 14.8668 28.2885 14.4852C28.1401 14.1459 27.9493 13.7218 27.7372 13.3189C26.6558 11.3257 25.2139 9.65055 23.5175 8.18745C22.9874 7.74215 23.0722 7.31807 23.7084 7.04241C23.7296 7.04241 23.7508 7.0212 23.7932 7C24.5354 7 25.2987 7 26.0409 7ZM36.8763 22.4792C36.8339 22.3308 36.7915 22.2036 36.7491 22.0975C35.5616 19.2349 34.4378 16.3511 33.1867 13.531C31.7661 10.3503 29.2639 8.56913 25.8076 8.16624C25.6592 8.16624 25.5108 8.16624 25.3411 8.16624C25.3835 8.25106 25.3835 8.29347 25.4047 8.31467C25.5532 8.4631 25.7016 8.61154 25.8288 8.75997C27.2919 10.3079 28.5218 12.0042 29.3488 13.9763C29.6668 14.7608 29.4336 15.3545 28.6702 15.6938C28.437 15.7998 28.1825 15.9059 27.9069 16.0331C28.0129 16.3299 28.1189 16.5844 28.2249 16.8388C28.437 17.3619 28.338 17.8142 27.9281 18.1959C28.6278 19.8711 29.3063 21.5462 30.0061 23.2002C30.727 23.0941 30.8331 23.1578 31.1087 23.7939C31.2359 24.0908 31.3632 24.3876 31.5116 24.7269C33.3352 23.9635 35.1163 23.2214 36.9187 22.458L36.8763 22.4792ZM23.9628 21.0585C23.772 21.1221 23.6448 21.1858 23.5175 21.2282C20.2097 22.5852 16.923 23.9635 13.6151 25.3206C12.5337 25.7659 11.4522 26.2112 10.392 26.6777C9.71347 26.9746 9.3742 27.7167 9.54383 28.4377C9.69226 29.1162 10.3072 29.6675 11.0281 29.6463C11.325 29.6463 11.6431 29.5403 11.9399 29.4343C15.8415 27.8227 19.7219 26.2112 23.6236 24.5997C24.1325 24.3876 24.6414 24.1756 25.1715 23.9423C24.7686 22.9669 24.3869 22.0339 23.984 21.0585H23.9628ZM33.5896 29.9008C35.3708 29.1586 37.0884 28.4589 38.7847 27.7379C38.8695 27.6955 38.9756 27.5047 38.9544 27.4198C38.7635 26.9109 38.5515 26.402 38.3182 25.8507C36.4734 26.6141 34.6923 27.3562 32.8687 28.1196C33.1231 28.7345 33.3564 29.307 33.6108 29.9008H33.5896ZM25.2139 21.1009C25.5108 21.8007 25.7652 22.3944 26.0197 23.0517C26.8042 22.7337 27.5252 22.4368 28.2885 22.1187C28.0129 21.4402 27.7584 20.8465 27.4828 20.1891C26.7194 20.5072 25.9985 20.8041 25.2139 21.1221V21.1009ZM33.1655 25.2782C33.3564 25.7235 33.5048 26.1052 33.6745 26.5081C34.6711 26.1052 35.6041 25.7023 36.5795 25.2994C36.4098 24.8541 36.2402 24.4936 36.0705 24.0696C35.0951 24.4724 34.1622 24.8541 33.1655 25.2782ZM37.8729 18.2383C37.5549 17.4962 37.2792 16.8176 36.9823 16.1179C36.5158 16.3087 36.1342 16.4784 35.7101 16.648C36.0281 17.3902 36.3038 18.0687 36.6007 18.7684C37.046 18.5776 37.4276 18.4292 37.8729 18.2383Z" fill="white"/>
<path d="M41.6686 30.663C41.6686 31.1507 41.3506 31.4476 40.9901 31.3416C40.5024 31.1931 40.0147 30.9811 39.5482 30.7478C39.2937 30.6206 39.1877 30.3661 39.2937 30.0693C39.421 29.7512 39.6754 29.624 39.9723 29.73C40.46 29.8997 40.9265 30.0905 41.3718 30.3237C41.5202 30.3874 41.605 30.5994 41.6686 30.6842V30.663Z" fill="white"/>
<path d="M34.0762 34.3328C33.5885 34.3328 33.3129 33.9723 33.4401 33.5907C33.6097 33.1242 33.8006 32.6789 34.0126 32.2336C34.1611 31.9367 34.4367 31.8519 34.7336 31.9791C35.0092 32.0851 35.1577 32.3396 35.0516 32.6365C34.882 33.103 34.6912 33.5907 34.4579 34.036C34.3731 34.1844 34.1611 34.2904 34.0762 34.354V34.3328Z" fill="white"/>
<path d="M37.7642 31.9157C37.7642 31.9157 38.0611 32.1278 38.1671 32.3186C38.358 32.7003 38.5064 33.1032 38.6548 33.5061C38.782 33.8453 38.7184 34.1422 38.358 34.2694C38.0187 34.3967 37.743 34.2694 37.5946 33.9302C37.425 33.5273 37.2341 33.1032 37.0857 32.6791C36.9373 32.2762 37.2129 31.8945 37.7642 31.8945V31.9157Z" fill="white"/>
<path d="M34.1816 38.7441C34.4997 38.7865 34.7117 38.9562 34.7329 39.2955C34.7541 39.6135 34.4785 39.8892 34.1392 39.8892C33.7787 39.8892 33.6091 39.6559 33.5879 39.3167C33.5879 39.0198 33.8423 38.7441 34.1816 38.7441Z" fill="white"/>
<path d="M16.4351 39.2955C16.4139 39.6559 16.223 39.8468 15.8838 39.8892C15.5869 39.9104 15.29 39.6559 15.29 39.3379C15.29 38.9986 15.5021 38.7653 15.8414 38.7441C16.2018 38.7441 16.3927 38.935 16.4351 39.2955Z" fill="white"/>
<path d="M40.8386 39.3803C40.7962 39.6983 40.5841 39.868 40.2448 39.8892C39.948 39.8892 39.6723 39.5923 39.6935 39.2955C39.7359 38.9562 39.9268 38.7441 40.2873 38.7441C40.6053 38.7441 40.8386 39.0198 40.8386 39.3803Z" fill="white"/>
<path d="M3.62525 38.7439C3.96452 38.7863 4.17657 38.9559 4.19777 39.2952C4.21898 39.6132 3.94332 39.9101 3.60405 39.8677C3.26478 39.8465 3.05273 39.6344 3.05273 39.2952C3.05273 38.9559 3.26478 38.7651 3.62525 38.7227V38.7439Z" fill="white"/>
<path d="M10.3073 39.2944C10.3073 39.5912 10.0529 39.8669 9.7348 39.8669C9.41673 39.8669 9.14108 39.6124 9.16228 39.2944C9.16228 38.9339 9.37432 38.7431 9.7348 38.7219C10.0317 38.7006 10.3073 38.9763 10.3285 39.2732L10.3073 39.2944Z" fill="white"/>
<path d="M28.6275 39.3591C28.5851 39.6559 28.4154 39.8892 28.0549 39.8892C27.6945 39.8892 27.5036 39.6771 27.4824 39.3167C27.4824 39.0198 27.7369 38.7441 28.0549 38.7441C28.373 38.7441 28.6275 39.0198 28.6275 39.3591Z" fill="white"/>
<path d="M21.9266 39.8892C21.6085 39.8892 21.3541 39.6135 21.3753 39.2955C21.3965 38.9562 21.6085 38.7441 21.969 38.7441C22.2658 38.7441 22.5415 39.0198 22.5203 39.3379C22.5203 39.6347 22.2446 39.8892 21.9266 39.8892Z" fill="white"/>
<path d="M46.9477 39.3591C46.9053 39.6559 46.7356 39.8892 46.3751 39.8892C46.0359 39.8892 45.8238 39.6983 45.7814 39.3379C45.7602 39.0198 46.0359 38.7441 46.3539 38.7441C46.6508 38.7441 46.9053 39.0198 46.9265 39.3591H46.9477Z" fill="white"/>
</svg>
