<svg width="50" height="50" viewBox="0 0 50 50" fill="none" xmlns="http://www.w3.org/2000/svg">
<path d="M14.0777 41.678H7.11054C8.42943 42.9968 9.51894 44.0864 10.6371 45.1759C10.7805 45.2906 11.0385 45.2906 11.2679 45.2906C14.2211 45.2906 17.1742 45.2906 20.4428 45.2906C19.9267 44.8318 19.554 44.5738 19.2386 44.2584C15.0525 40.101 10.6658 36.087 6.76648 31.7003C1.94966 26.224 0.860145 19.7443 3.46925 12.9491C6.04969 6.18262 11.1819 2.19728 18.4071 1.19378C24.3708 0.362305 29.5603 2.22595 33.8611 6.412C37.4737 9.93859 41.0289 13.5225 44.5842 17.1351C49.9171 22.5541 51.4654 30.4387 48.5409 37.4059C45.6451 44.3444 38.8786 48.8172 31.3093 48.8172C24.3995 48.8172 17.4896 48.8172 10.6085 48.8172C9.69097 48.8172 9.00286 48.5591 8.34341 47.8997C5.79165 45.2906 3.18254 42.7388 0.630773 40.1297C0.286715 39.7856 0.200701 39.2122 0 38.7248C0.487416 38.5528 0.974831 38.2374 1.46225 38.2374C4.24338 38.18 6.99585 38.18 9.77699 38.2374C10.2357 38.2374 10.7805 38.4668 11.1245 38.7821C12.0994 39.6423 13.0169 40.6171 14.0777 41.7066V41.678ZM46.5052 30.2954C46.5052 21.952 39.8247 15.1568 31.5387 15.1281C23.1666 15.0995 16.3714 21.7799 16.3428 30.066C16.2854 38.4668 22.9946 45.2619 31.3666 45.2906C39.71 45.2906 46.4765 38.6101 46.5052 30.2954ZM12.9882 32.9045C12.3288 26.7974 13.9344 21.4645 18.2924 17.1065C22.6505 12.7484 28.0121 11.1141 34.2051 11.6015C32.3415 9.82391 30.5352 7.98893 28.4421 6.6127C25.1449 4.491 21.4176 3.91757 17.6043 4.86373C11.2966 6.38332 7.28256 10.3973 6.04969 16.7337C4.64479 23.8729 7.99935 28.8618 13.0455 32.8758L12.9882 32.9045Z" fill="white"/>
<path d="M31.4264 24.0156C34.8384 24.0156 37.6195 26.8254 37.6195 30.2373C37.6195 33.6493 34.781 36.4304 31.3691 36.4017C28.0145 36.4017 25.2621 33.6206 25.2334 30.2373C25.2334 26.8254 28.0145 24.0156 31.4264 24.0443V24.0156Z" fill="white"/>
</svg>
