<svg width="50" height="50" viewBox="0 0 50 50" fill="none" xmlns="http://www.w3.org/2000/svg">
<path d="M24.9064 29.5879C16.2544 29.5879 8.12636 34.1829 3.69336 41.5789L5.21936 42.4919C9.33236 35.6289 16.8764 31.3649 24.9074 31.3649C32.9374 31.3649 40.4814 35.6279 44.5954 42.4919L46.1204 41.5789C41.6864 34.1829 33.5574 29.5879 24.9064 29.5879Z" fill="white"/>
<path d="M5.21936 7.79102L3.69336 8.70402C8.12636 16.1 16.2544 20.695 24.9064 20.695C33.5574 20.695 41.6864 16.1 46.1194 8.70402L44.5944 7.79102C40.4804 14.654 32.9364 18.918 24.9064 18.918C16.8764 18.917 9.33236 14.654 5.21936 7.79102Z" fill="white"/>
<path d="M41.5397 20.0664L40.2827 21.3234L43.2107 24.2514H6.60166L9.52966 21.3234L8.27266 20.0664L3.82666 24.5124C3.47966 24.8594 3.47966 25.4224 3.82666 25.7694L8.27266 30.2154L9.52966 28.9584L6.60166 26.0304H43.2097L40.2817 28.9584L41.5387 30.2154L45.9847 25.7694C46.3317 25.4224 46.3317 24.8594 45.9847 24.5124L41.5397 20.0664Z" fill="white"/>
</svg>
