<svg width="50" height="50" viewBox="0 0 50 50" fill="none" xmlns="http://www.w3.org/2000/svg">
<g clip-path="url(#clip0_5006_5330)">
<path d="M49.3574 23.4461L43.8757 17.9644C43.1238 17.2124 42.0189 17.0959 41.1265 17.6745C40.2341 18.2531 39.8896 19.3093 40.2694 20.3028L40.9449 22.07H38.137C35.5061 22.07 33.0042 23.0584 31.0986 24.7628C31.017 22.6815 29.866 20.7627 28.0522 19.7132C25.266 18.1045 23.535 15.0964 23.535 11.8628V7.99066C23.535 7.74963 23.4165 7.52404 23.2178 7.38731C23.0192 7.25069 22.7662 7.22051 22.5411 7.30655L19.7798 8.36206C19.2661 8.55846 18.9794 8.19301 18.9037 8.0764C18.8281 7.9597 18.6115 7.54884 19.0003 7.15996L24.4821 1.67829C24.7676 1.39273 25.2323 1.39273 25.5178 1.67829L30.9996 7.15996C31.3884 7.54884 31.1719 7.9597 31.0962 8.0764C31.0206 8.19301 30.734 8.55865 30.2201 8.36206L27.4588 7.30655C27.2338 7.22071 26.9807 7.25079 26.7821 7.38741C26.5835 7.52404 26.4649 7.74963 26.4649 7.99076V11.8604C26.4649 14.0517 27.6345 16.0883 29.5168 17.1749C31.1065 18.0947 32.3648 19.4555 33.1555 21.1098C33.3299 21.4749 33.7672 21.6293 34.1322 21.4549C34.4971 21.2805 34.6516 20.8431 34.4772 20.4782C33.5585 18.556 32.0969 16.9753 30.2499 15.9065C28.8188 15.0803 27.9298 13.5299 27.9298 11.8603V9.05486L29.697 9.73038C30.6905 10.1102 31.7466 9.76573 32.3253 8.87341C32.904 7.98099 32.7875 6.87616 32.0355 6.12418L26.5537 0.642507C25.697 -0.214169 24.303 -0.214169 23.4463 0.642507L17.9645 6.12418C17.2124 6.87626 17.096 7.98109 17.6747 8.87341C18.2532 9.76573 19.3093 10.1103 20.303 9.73038L22.0702 9.05486V11.8629C22.0702 12.8708 22.2164 13.8596 22.4911 14.8035C19.8611 15.449 17.5661 17.0979 16.1066 19.4189C15.8913 19.7613 15.9943 20.2135 16.3368 20.4288C16.4579 20.5049 16.5928 20.5413 16.726 20.5413C16.9694 20.5413 17.2076 20.4199 17.3467 20.1986C18.6325 18.1537 20.6713 16.7155 23.0005 16.189C23.4448 17.177 24.0397 18.0925 24.7629 18.9013C22.6816 18.9829 20.7628 20.1339 19.7133 21.9477C18.1046 24.7339 15.0966 26.4649 11.863 26.4649H7.99086C7.74983 26.4649 7.52423 26.5834 7.38751 26.7821C7.25079 26.9806 7.22061 27.2337 7.30665 27.4588L8.36226 30.2202C8.55865 30.7339 8.19321 31.0206 8.0766 31.0962C7.9599 31.1719 7.54914 31.3886 7.16016 30.9996L1.67849 25.5179C1.39293 25.2324 1.39293 24.7676 1.67849 24.4821L7.16025 19.0004C7.54914 18.6114 7.96 18.8282 8.0767 18.9037C8.19331 18.9794 8.55875 19.2661 8.36235 19.7798L7.30684 22.5411C7.2208 22.7663 7.25098 23.0193 7.38761 23.2179C7.52433 23.4165 7.74993 23.5351 7.99095 23.5351H11.8606C13.004 23.5351 14.1247 23.2169 15.1017 22.6147C15.446 22.4024 15.5532 21.9512 15.3409 21.6068C15.1286 21.2625 14.6773 21.1554 14.333 21.3677C13.5873 21.8274 12.7324 22.0703 11.8606 22.0703H9.05506L9.73058 20.3031C10.1104 19.3097 9.76593 18.2534 8.87361 17.6747C7.98128 17.0961 6.87636 17.2126 6.12437 17.9647L0.642507 23.4462C-0.214169 24.3029 -0.214169 25.6969 0.642507 26.5537L6.12427 32.0354C6.55759 32.4687 7.10781 32.691 7.66721 32.691C8.07875 32.691 8.49527 32.5707 8.87351 32.3253C9.76593 31.7467 10.1103 30.6905 9.73058 29.6971L9.05496 27.9298H11.863C12.8707 27.9298 13.8593 27.7837 14.803 27.509C15.4789 30.2769 17.2467 32.6446 19.75 34.0931C21.1811 34.9193 22.0701 36.4698 22.0701 38.1394V40.9449L20.3029 40.2694C19.3094 39.8895 18.2532 40.2341 17.6746 41.1264C17.0959 42.0187 17.2124 43.1235 17.9645 43.8756L23.4462 49.3573C23.8745 49.7856 24.4372 49.9999 25 49.9999C25.5627 49.9999 26.1254 49.7857 26.5537 49.3573L32.0354 43.8756C32.7875 43.1235 32.904 42.0187 32.3253 41.1264C31.7467 40.234 30.6904 39.8894 29.6971 40.2694L27.9298 40.9449V40.4808C27.9298 40.0762 27.6018 39.7483 27.1973 39.7483C26.7928 39.7483 26.4649 40.0762 26.4649 40.4808V42.009C26.4649 42.2501 26.5834 42.4757 26.7821 42.6124C26.9807 42.749 27.2337 42.7792 27.4588 42.6933L30.2202 41.6376C30.7339 41.4411 31.0206 41.8066 31.0963 41.9233C31.1719 42.04 31.3885 42.4509 30.9996 42.8397L25.5179 48.3214C25.2324 48.607 24.7678 48.6071 24.4821 48.3214L19.0004 42.8397C18.6115 42.4509 18.8281 42.04 18.9038 41.9233C18.9794 41.8067 19.2662 41.4412 19.7799 41.6376L22.5412 42.6932C22.7663 42.7792 23.0195 42.749 23.2179 42.6123C23.4165 42.4757 23.5351 42.2501 23.5351 42.0089V38.1393C23.5351 35.948 22.3655 33.9114 20.4833 32.8248C18.2806 31.5503 16.7402 29.4493 16.189 26.9995C17.1771 26.5552 18.0927 25.9603 18.9015 25.237C18.9831 27.3183 20.1341 29.237 21.9479 30.2865C24.5791 31.8057 26.2615 34.5347 26.4483 37.5866C26.472 37.9752 26.7945 38.2743 27.1787 38.2743C27.1937 38.2743 27.2089 38.2739 27.2241 38.273C27.6278 38.2482 27.9351 37.901 27.9104 37.4971C27.8621 36.7075 27.727 35.9366 27.5131 35.1955C30.2791 34.5187 32.6466 32.7505 34.0934 30.2499C34.9196 28.8188 36.4701 27.9298 38.1397 27.9298H40.9451L40.2696 29.697C39.8899 30.6904 40.2344 31.7466 41.1267 32.3252C42.019 32.9037 43.1237 32.7874 43.8759 32.0353L49.3576 26.5536C50.2142 25.6969 50.2142 24.3028 49.3574 23.4461ZM48.3216 25.5178L42.8399 30.9995C42.451 31.3885 42.0403 31.1717 41.9235 31.0962C41.8068 31.0205 41.4414 30.7338 41.6377 30.2201L42.6933 27.4588C42.7793 27.2336 42.7491 26.9806 42.6124 26.782C42.4758 26.5834 42.2502 26.4648 42.009 26.4648H38.1394C35.9481 26.4648 33.9115 27.6344 32.8249 29.5166C31.5522 31.7162 29.4522 33.2572 27.005 33.8098C26.1149 31.823 24.6201 30.1378 22.6807 29.0181C21.2499 28.1902 20.3611 26.6505 20.3611 24.9998C20.3611 24.185 20.5752 23.3841 20.98 22.6833C20.9805 22.6824 20.981 22.6815 20.9815 22.6806C21.8094 21.2498 23.3492 20.361 24.9999 20.361C25.8145 20.361 26.6153 20.575 27.3161 20.9797C27.317 20.9803 27.318 20.9808 27.3191 20.9814C28.7499 21.8093 29.6387 23.349 29.6387 24.9998C29.6387 25.8149 29.4244 26.6161 29.0194 27.3171C29.019 27.3177 29.0186 27.3184 29.0183 27.319C28.5164 28.1864 27.7336 28.8795 26.814 29.2707C26.4417 29.429 26.2684 29.8592 26.4268 30.2314C26.5851 30.6036 27.0152 30.7771 27.3875 30.6186C28.5971 30.1041 29.6265 29.1927 30.2866 28.0519C31.8953 25.2657 34.9034 23.5348 38.137 23.5348H42.0091C42.2502 23.5348 42.4758 23.4162 42.6125 23.2176C42.7491 23.019 42.7793 22.7659 42.6933 22.5407L41.6377 19.7794C41.4413 19.2657 41.8067 18.979 41.9234 18.9033C42.0401 18.8276 42.451 18.6111 42.8398 18.9999L48.3215 24.4816C48.6072 24.7675 48.6072 25.2322 48.3216 25.5178Z" fill="white"/>
</g>
<defs>
<clipPath id="clip0_5006_5330">
<rect width="50" height="50" fill="white"/>
</clipPath>
</defs>
</svg>
