<svg width="100" height="100" viewBox="0 0 100 100" fill="none" xmlns="http://www.w3.org/2000/svg">
<circle cx="50" cy="50" r="50" fill="url(#paint0_linear_5004_4147)"/>
<g clip-path="url(#clip0_5004_4147)">
<path d="M43.3795 46.2013C43.3207 45.2884 42.2017 45.1412 41.5244 45.1706C38.197 45.2295 37.4903 43.3155 37.343 42.7266C36.9602 41.2543 37.7553 39.5464 39.1982 38.8102C39.581 38.6041 39.9638 38.4863 40.3171 38.4274V37.4262C40.3171 36.8962 40.7588 36.4545 41.2888 36.4545C41.8189 36.4545 42.2606 36.8962 42.2606 37.4262V38.5158C43.5268 38.8397 44.4396 39.5169 44.4985 39.5758C44.9108 39.8997 44.9991 40.4887 44.6752 40.9304C44.3513 41.3426 43.7623 41.4309 43.3207 41.107C43.3207 41.107 42.3489 40.4003 41.2888 40.312C41.2888 40.312 41.2594 40.312 41.23 40.312C40.8472 40.312 40.4643 40.3414 40.111 40.5476C39.4632 40.9009 39.0509 41.6665 39.2276 42.2849C39.4043 42.9327 40.2288 43.2861 41.5244 43.2861C44.204 43.2272 45.2347 44.7584 45.323 46.0835C45.4408 47.703 44.2629 49.617 42.29 49.8526C42.29 49.8526 42.29 49.8526 42.2606 49.8526V50.8538C42.2606 51.3838 41.8189 51.8255 41.2888 51.8255C40.7588 51.8255 40.3171 51.3838 40.3171 50.8538V49.7643C38.5503 49.4109 37.5492 48.3803 37.4903 48.3214C37.1369 47.9386 37.1369 47.3202 37.5492 46.9669C37.932 46.6135 38.5503 46.6135 38.9037 47.0258C38.9331 47.0552 40.0815 48.2036 42.025 47.9386C42.8495 47.8208 43.4384 46.9374 43.3795 46.2013ZM77.8907 55.0646C79.2158 56.9198 78.7741 59.5405 76.919 60.895L62.608 71.1424C60.3701 72.7619 57.6316 73.6159 54.8636 73.557L39.0215 73.3509C37.078 73.3214 35.164 73.7042 33.3678 74.5287C32.6316 74.8526 31.8366 75.0293 31.0709 75.0293C29.6575 75.0293 28.2735 74.4698 27.2135 73.4097L22.5904 68.7278C21.4714 67.6088 20.9119 66.0776 21.0003 64.5169C21.0886 62.9563 21.8542 61.5134 23.091 60.5417L26.4479 57.9209C28.4797 56.3308 30.8354 55.3297 33.3089 54.9174C29.9225 52.4439 27.8613 48.4981 27.8613 44.14C27.8907 36.749 33.8978 30.7419 41.2888 30.7419C42.7023 30.7419 44.0568 30.948 45.323 31.3603V29.0929C45.3525 25.8832 53.3324 25.0293 58.0733 25.0293C62.8142 25.0293 70.4408 25.8538 70.7942 28.9162C70.7942 28.9751 70.8236 29.034 70.8236 29.1223V37.1318C70.8236 37.1318 70.8236 37.2496 70.8236 37.3379C70.8236 37.3673 70.8236 37.3968 70.8236 37.4557V44.9645C70.8236 44.9645 70.8236 44.994 70.8236 45.0234V53.4745C70.8236 54.1518 70.4408 54.7407 69.8224 55.2413L72.5609 53.7984C74.151 52.9445 76.1828 53.2684 77.4785 54.5346C77.6552 54.7113 77.8024 54.888 77.9496 55.0941L77.8907 55.0646ZM47.237 29.1223C47.4431 29.7113 50.9473 31.2719 58.0733 31.2719C65.1993 31.2719 68.6151 29.7407 68.8801 29.0929C68.6151 28.4451 65.0815 26.9139 58.0733 26.9139C51.0651 26.9139 47.4726 28.4745 47.237 29.0929V29.1223ZM47.237 32.1553C50.4761 33.7749 52.9791 36.6606 54.0686 40.1648C55.3053 40.3414 56.6304 40.4298 58.0439 40.4298C64.6693 40.4298 68.8801 38.4569 68.8801 37.1023V31.4192C66.23 32.7737 61.3419 33.186 58.0439 33.186C54.7459 33.186 49.8872 32.7737 47.2076 31.4192V32.1553H47.237ZM55.0698 60.3061C55.0698 60.3061 55.0698 60.4239 55.0698 60.4828C57.396 60.8361 59.8106 60.4239 61.9013 59.3344L67.879 56.1836C65.111 57.1848 60.959 57.5087 58.0439 57.5087C56.6304 57.5087 55.2464 57.4203 53.9508 57.3026C54.6281 58.0976 55.0698 59.1871 55.0698 60.2766V60.3061ZM68.8801 53.4156V47.6736C66.495 49.1459 62.2547 49.9115 58.0439 49.9115C56.4832 49.9115 54.9814 49.7937 53.5091 49.5876C52.6257 51.5605 51.3006 53.2978 49.5927 54.6524C51.7129 55.2708 54.7753 55.6536 58.0144 55.6536C65.111 55.6536 68.6446 54.0929 68.8507 53.4451L68.8801 53.4156ZM68.8801 44.8762V40.0175C66.495 41.5782 62.2547 42.3732 58.0439 42.3732C56.8071 42.3732 55.6293 42.3143 54.5103 42.1966C54.5986 42.8444 54.6575 43.4922 54.6575 44.1695C54.6575 45.4062 54.4808 46.5841 54.1569 47.7325C55.4231 47.8797 56.6893 47.9975 58.0144 47.9975C64.9638 47.9975 68.7624 46.0246 68.8507 44.994V44.9351L68.8801 44.8762ZM36.8719 54.7113C39.257 54.8585 41.9072 55.0352 44.3218 55.2119C49.2983 53.8573 52.7729 49.352 52.7729 44.14C52.7729 37.809 47.6198 32.6559 41.2888 32.6559C34.9579 32.6559 29.8048 37.809 29.8048 44.14C29.8048 48.7925 32.5727 52.915 36.8424 54.7113H36.8719ZM76.3006 56.1542C76.3006 56.1542 76.1534 55.948 76.0651 55.8597C75.3583 55.153 74.2688 55.0057 73.4149 55.4474L62.7847 61.0423C60.2523 62.3673 57.3666 62.809 54.5692 62.3379C53.9802 63.398 52.8024 64.5169 50.3583 65.1059C44.3807 66.5487 39.1982 66.7843 38.9626 66.8137C38.4031 66.8432 37.9909 66.4309 37.9614 65.9009C37.9614 65.3709 38.3442 64.9292 38.8742 64.8997C38.9331 64.8997 44.1157 64.6347 49.9166 63.2507C52.0073 62.7501 53.1558 61.6901 53.1558 60.3061C53.1558 59.2166 52.3607 58.0682 51.4773 57.862C50.6823 57.6854 48.2088 57.4203 44.4102 57.1259C42.2606 56.9786 39.6693 56.802 36.6952 56.6253C36.6952 56.6253 36.6952 56.6253 36.6658 56.6253C36.4007 56.6253 36.1357 56.6253 35.9002 56.6253C32.9261 56.6253 30.0403 57.6265 27.6846 59.4521L24.3277 62.0729C23.5327 62.6913 23.0321 63.6335 22.9732 64.6347C22.9143 65.6359 23.2676 66.6371 24.0038 67.3438L28.6269 72.0258C29.6575 73.0858 31.2476 73.3509 32.6316 72.7325C34.6929 71.8196 36.8424 71.3779 39.0804 71.4074L54.9225 71.6135C57.2194 71.643 59.6045 70.9068 61.5185 69.5523L75.8295 59.3049C76.8601 58.5688 77.0957 57.1848 76.3595 56.1542H76.3006Z" fill="white"/>
</g>
<defs>
<linearGradient id="paint0_linear_5004_4147" x1="0" y1="0" x2="195.5" y2="169.5" gradientUnits="userSpaceOnUse">
<stop stop-color="#00678E"/>
<stop offset="1" stop-color="#001D28"/>
</linearGradient>
<clipPath id="clip0_5004_4147">
<rect width="57.6561" height="50" fill="white" transform="translate(21 25)"/>
</clipPath>
</defs>
</svg>
