<svg width="100" height="100" viewBox="0 0 100 100" fill="none" xmlns="http://www.w3.org/2000/svg">
<circle cx="50" cy="50" r="50" fill="url(#paint0_linear_5006_5093)"/>
<path d="M51.7191 71.5607H29.1409C27.9691 71.5607 26.9534 70.6232 27.0316 69.3732L27.1097 63.7482C27.2659 61.6389 28.3597 59.7639 30.0784 58.5139L34.7659 55.0764C35.3128 54.6857 36.0159 54.842 36.4066 55.3889C37.2659 56.717 38.7503 57.5764 40.4691 57.5764C42.1878 57.5764 43.6722 56.717 44.5316 55.3889C44.9222 54.842 45.6253 54.6857 46.1722 55.0764L50.8597 58.5139C52.5784 59.7639 53.6722 61.6389 53.8285 63.7482L53.9066 69.3732C53.9066 70.6232 52.9691 71.5607 51.7191 71.5607Z" fill="white"/>
<path d="M48.1254 42.4991C48.0472 42.4991 48.0472 42.4991 47.9691 42.4991C47.7347 38.5929 44.4535 35.4679 40.4691 35.4679C40.0004 35.4679 39.6097 35.546 39.141 35.546C37.8129 35.3897 36.641 35.3897 36.016 35.7022C35.2347 36.171 34.0629 36.2491 33.2035 36.2491C32.5004 36.2491 31.9535 36.9522 32.1879 37.6554L33.2035 40.9366C33.0472 41.4054 32.9691 41.9522 32.9691 42.421C32.891 42.421 32.891 42.421 32.8129 42.421C32.4222 42.4991 32.1879 43.3585 32.4222 44.3741C32.5785 45.3116 33.1254 46.0929 33.516 46.0147C34.6097 49.4522 37.3441 52.8897 40.4691 52.8897C43.6722 52.8897 46.3285 49.4522 47.4222 46.0147C47.8129 46.0147 48.3597 45.3116 48.516 44.3741C48.7504 43.4366 48.5941 42.5772 48.1254 42.4991Z" fill="white"/>
<path d="M71.5625 28.4375H54.0625C53.2812 28.4375 52.6562 29.0625 52.6562 29.8437V47.6563C52.6562 48.2813 53.2813 48.6719 53.8281 48.4375L60.9375 45.3906C61.1719 45.3125 61.4062 45.2344 61.7187 45.2344H71.5625C72.3437 45.2344 72.9688 44.6094 72.9688 43.8281V29.8437C72.9688 29.0625 72.3437 28.4375 71.5625 28.4375ZM68.5156 35.625L66.0156 38.0469C65.9375 38.125 65.9375 38.2031 65.9375 38.3594L66.5625 41.7969C66.6406 42.0313 66.3281 42.2656 66.0937 42.1094L62.9687 40.4687C62.8906 40.3906 62.7344 40.3906 62.6562 40.4687L59.5312 42.1094C59.2969 42.2656 58.9844 42.0313 59.0625 41.7969L59.6875 38.3594C59.6875 38.2813 59.6875 38.125 59.6094 38.0469L57.1094 35.625C56.9531 35.4688 57.0312 35.0781 57.2656 35.0781L60.7031 34.6094C60.7812 34.6094 60.9375 34.5313 60.9375 34.4531L62.5 31.3281C62.6562 31.0938 62.9687 31.0938 63.0469 31.3281L64.6094 34.4531C64.6875 34.5313 64.7656 34.6094 64.8437 34.6094L68.2812 35.0781C68.5938 35.1563 68.75 35.4688 68.5156 35.625Z" fill="white"/>
<defs>
<linearGradient id="paint0_linear_5006_5093" x1="0" y1="0" x2="195.5" y2="169.5" gradientUnits="userSpaceOnUse">
<stop stop-color="#00678E"/>
<stop offset="1" stop-color="#001D28"/>
</linearGradient>
</defs>
</svg>
