<svg width="100" height="100" viewBox="0 0 100 100" fill="none" xmlns="http://www.w3.org/2000/svg">
<circle cx="50" cy="50" r="50" fill="url(#paint0_linear_5004_4155)"/>
<path d="M49.0078 53.3983C48.75 53.2577 48.4375 53.2811 48.1953 53.453L43.3047 56.9139V54.0858C43.3047 53.7968 43.1406 53.5311 42.8828 53.3983C42.625 53.2577 42.3125 53.2811 42.0703 53.453L37.1719 56.9139V54.0858C37.1719 53.7968 37.0078 53.5311 36.75 53.3983C36.4922 53.2577 36.1797 53.2811 35.9375 53.453L29.8125 57.7811C29.6094 57.9296 29.4844 58.1717 29.4844 58.4217V71.0936C29.4844 71.5233 29.8359 71.8749 30.2656 71.8749H48.6484C49.0781 71.8749 49.4297 71.5233 49.4297 71.0936V54.0858C49.4297 53.7968 49.2656 53.5311 49.0078 53.3983ZM35.6016 66.5233C35.6016 66.953 35.25 67.3046 34.8203 67.3046C34.3828 67.3046 34.0391 66.953 34.0391 66.5233V64.4686C34.0391 64.0389 34.3828 63.6874 34.8203 63.6874C35.25 63.6874 35.6016 64.0389 35.6016 64.4686V66.5233ZM40 66.5233C40 66.953 39.6484 67.3046 39.2188 67.3046C38.7813 67.3046 38.4375 66.953 38.4375 66.5233V64.4686C38.4375 64.0389 38.7813 63.6874 39.2188 63.6874C39.6484 63.6874 40 64.0389 40 64.4686V66.5233ZM44.3984 66.5233C44.3984 66.953 44.0469 67.3046 43.6172 67.3046C43.1797 67.3046 42.8359 66.953 42.8359 66.5233V64.4686C42.8359 64.0389 43.1797 63.6874 43.6172 63.6874C44.0469 63.6874 44.3984 64.0389 44.3984 64.4686V66.5233Z" fill="white"/>
<path d="M71.0939 71.875H48.6494C48.2174 71.875 47.8682 71.525 47.8682 71.0938C47.8682 70.6625 48.2174 70.3125 48.6494 70.3125H71.0939C71.526 70.3125 71.8752 70.6625 71.8752 71.0938C71.8752 71.525 71.526 71.875 71.0939 71.875Z" fill="white"/>
<path d="M30.2656 71.875H28.9062C28.4742 71.875 28.125 71.525 28.125 71.0938C28.125 70.6625 28.4742 70.3125 28.9062 70.3125H30.2656C30.6977 70.3125 31.0469 70.6625 31.0469 71.0938C31.0469 71.525 30.6977 71.875 30.2656 71.875Z" fill="white"/>
<path d="M60.9337 60.7035H52.4267C52.2095 60.7035 52.0009 60.6129 51.8532 60.4527C51.7056 60.2926 51.6313 60.0785 51.6477 59.8613L52.7001 46.4488C52.7321 46.0418 53.072 45.7285 53.479 45.7285H59.8813C60.2884 45.7285 60.6282 46.0418 60.6602 46.4488L61.7126 59.8613C61.729 60.0785 61.6556 60.2926 61.5071 60.4527C61.3595 60.6129 61.1509 60.7035 60.9337 60.7035ZM53.2712 59.141H60.0892L59.1595 47.291H54.2017L53.2712 59.141Z" fill="white"/>
<path d="M71.6558 28.3672C71.5074 28.2109 71.3042 28.125 71.0933 28.125C63.8511 28.1484 58.0464 30.5312 55.8589 34.2734C54.7808 33.4062 53.3589 32.7187 51.7183 32.25C50.0777 31.7734 48.2027 31.5156 46.2183 31.5156C46.0074 31.5156 45.8042 31.6016 45.6558 31.7578C45.5074 31.9062 45.4292 32.1172 45.4371 32.3281C45.6011 36.5391 47.8355 40.5938 50.8824 42.1875C52.4996 43.0313 54.2339 43.1172 55.898 42.4531C56.1714 42.3438 56.4449 42.2109 56.7105 42.0625C56.9527 42.1953 57.2027 42.3047 57.4605 42.4063C58.3042 42.7422 59.1949 42.9063 60.1011 42.9063C61.4605 42.9063 62.8746 42.5312 64.2652 41.7891C68.5464 39.4844 71.6714 34.2031 71.8746 28.9375C71.8824 28.7266 71.8042 28.5156 71.6558 28.3672ZM57.2652 41.6641C57.2417 41.6953 57.2105 41.7188 57.1792 41.7422C57.148 41.7656 57.1167 41.7891 57.0855 41.8125C57.0074 41.8594 56.9214 41.8984 56.8355 41.9141C56.7808 41.9219 56.7339 41.9297 56.6792 41.9297C56.6324 41.9297 56.5855 41.9219 56.5386 41.9141C56.4917 41.9062 56.4527 41.8984 56.4058 41.875C56.3589 41.8594 56.3199 41.8359 56.2808 41.8125C56.2417 41.7969 56.2105 41.7734 56.1792 41.7422C56.1714 41.7422 56.1636 41.7344 56.1558 41.7266L56.0777 41.6484L55.9761 41.5625L55.898 41.5L55.3355 40.9922L52.2183 38.2109C51.898 37.9219 51.8667 37.4297 52.1558 37.1094C52.4449 36.7813 52.9371 36.7578 53.2574 37.0469L56.7027 40.1172L64.8824 33.3047C65.2183 33.0234 65.7105 33.0703 65.9839 33.3984C66.2574 33.7344 66.2105 34.2266 65.8824 34.5L58.0933 40.9844L57.4605 41.5078L57.4214 41.5391L57.2652 41.6641Z" fill="white"/>
<path d="M57.4609 41.5078V46.5078C57.4609 46.9375 57.1094 47.2891 56.6797 47.2891C56.25 47.2891 55.8984 46.9375 55.8984 46.5078V41.5L55.9766 41.5625L56.0781 41.6484L56.1563 41.7266C56.1641 41.7344 56.1719 41.7422 56.1797 41.7422C56.2109 41.7734 56.2422 41.7969 56.2813 41.8125C56.3203 41.8359 56.3594 41.8594 56.4063 41.875C56.4531 41.8984 56.4922 41.9062 56.5391 41.9141C56.5859 41.9219 56.6328 41.9297 56.6797 41.9297C56.7344 41.9297 56.7813 41.9219 56.8359 41.9141C56.9219 41.8984 57.0078 41.8594 57.0859 41.8125C57.1172 41.7891 57.1484 41.7656 57.1797 41.7422C57.2109 41.7187 57.2422 41.6953 57.2656 41.6641L57.4219 41.5391L57.4609 41.5078Z" fill="white"/>
<path d="M64.1326 65.2299C63.7006 65.2299 63.3514 64.8799 63.3514 64.4486V60.7041H48.6475C48.2154 60.7041 47.8662 60.3541 47.8662 59.9229C47.8662 59.4916 48.2154 59.1416 48.6475 59.1416H64.1326C64.5646 59.1416 64.9139 59.4916 64.9139 59.9229V64.4486C64.9139 64.8799 64.5646 65.2299 64.1326 65.2299Z" fill="white"/>
<path d="M69.7014 71.8754C69.2693 71.8754 68.9201 71.5254 68.9201 71.0941V65.2324H55.0303V71.0941C55.0303 71.5254 54.6811 71.8754 54.249 71.8754C53.817 71.8754 53.4678 71.5254 53.4678 71.0941V64.4512C53.4678 64.0199 53.817 63.6699 54.249 63.6699H69.7014C70.1334 63.6699 70.4826 64.0199 70.4826 64.4512V71.0941C70.4826 71.5254 70.1334 71.8754 69.7014 71.8754Z" fill="white"/>
<defs>
<linearGradient id="paint0_linear_5004_4155" x1="0" y1="0" x2="195.5" y2="169.5" gradientUnits="userSpaceOnUse">
<stop stop-color="#00678E"/>
<stop offset="1" stop-color="#001D28"/>
</linearGradient>
</defs>
</svg>
