<svg width="100" height="100" viewBox="0 0 100 100" fill="none" xmlns="http://www.w3.org/2000/svg">
<circle cx="50" cy="50" r="50" fill="url(#paint0_linear_5004_4137)"/>
<g clip-path="url(#clip0_5004_4137)">
<path d="M59.5763 49.881L62.0095 41.5318C62.2003 40.84 62.081 40.1482 61.6516 39.5756C61.2223 39.0031 60.5543 38.693 59.8625 38.7169L55.2108 38.8123C56.0934 37.4287 56.4751 35.9258 56.7375 34.8524C57.0715 33.4688 56.2604 31.7751 55.1154 31.4172C54.5906 31.2503 53.2308 31.1548 52.2766 33.7073C51.394 36.0928 48.3644 38.5976 46.623 39.8619V39.6711C46.623 38.7407 45.8597 38.0012 44.9532 38.0012H41.3749C40.4446 38.0012 39.7051 38.7646 39.7051 39.6711V50.3104C39.7051 51.2407 40.4684 51.9802 41.3749 51.9802H44.9532C45.8835 51.9802 46.623 51.2169 46.623 50.3104V49.9287L47.0524 50.5966C47.5057 51.2884 48.2452 51.694 49.0562 51.694H57.1431C58.2642 51.694 59.2661 50.9545 59.5763 49.8571V49.881ZM45.0247 50.3342C45.0247 50.3342 45.0009 50.4058 44.9532 50.4058H41.3749C41.3749 50.4058 41.3034 50.3819 41.3034 50.3342V39.6949C41.3034 39.6949 41.3272 39.6234 41.3749 39.6234H44.9532C44.9532 39.6234 45.0247 39.6472 45.0247 39.6949V50.3342ZM48.3883 49.7379L47.7203 48.7121C47.4579 48.3066 47.0524 48.0203 46.5992 47.8533V41.8419C47.935 40.9354 52.5152 37.6195 53.7557 34.256C54.185 33.111 54.5667 32.944 54.6144 32.944C54.9245 33.0394 55.3062 33.8505 55.1631 34.4468C54.853 35.7589 54.352 37.715 52.9207 39.0508C52.6822 39.2655 52.6106 39.6234 52.7299 39.9335C52.8492 40.2436 53.1831 40.4583 53.4932 40.4344L59.9102 40.2913C60.1011 40.2913 60.2919 40.3629 60.3873 40.5298C60.5066 40.673 60.5305 40.8877 60.4827 41.0547L60.2681 41.818H58.4074C57.9541 41.818 57.5963 42.1758 57.5963 42.6291C57.5963 43.0823 57.9541 43.4401 58.4074 43.4401H59.8148L59.5286 44.3943H57.8587C57.4055 44.3943 57.0476 44.7522 57.0476 45.2054C57.0476 45.6587 57.4055 46.0165 57.8587 46.0165H59.0515L58.6936 47.1854H57.0238C56.5705 47.1854 56.2127 47.5432 56.2127 47.9964C56.2127 48.4497 56.5705 48.8075 57.0238 48.8075H58.2165L58.0257 49.4755C57.9064 49.881 57.5486 50.1434 57.1192 50.1434H49.0324C48.77 50.1434 48.5076 50.0003 48.3644 49.7856L48.3883 49.7379Z" fill="white"/>
<path d="M43.1402 47.4951C42.6869 47.4951 42.3291 47.8529 42.3291 48.3062V49.2365C42.3291 49.6898 42.6869 50.0476 43.1402 50.0476C43.5934 50.0476 43.9512 49.6898 43.9512 49.2365V48.3062C43.9512 47.8529 43.5934 47.4951 43.1402 47.4951Z" fill="white"/>
<path d="M60.5544 58.2538C65.3254 54.9618 68.4742 49.4513 68.4742 43.249C68.4504 33.1823 60.292 25 50.2252 25C40.1584 25 32 33.1823 32 43.2252C32 49.4513 35.1489 54.9618 39.9198 58.2538L34.0277 68.9408C33.8845 69.2271 33.9084 69.5611 34.0992 69.7996C34.2901 70.062 34.6002 70.1574 34.9103 70.1097L40.7786 68.7977L42.8063 74.4513C42.9017 74.7376 43.188 74.9523 43.4981 74.9762C43.4981 74.9762 43.5458 74.9762 43.5697 74.9762C43.8559 74.9762 44.1183 74.8092 44.2615 74.5706L50.249 63.7166L56.2366 74.5706C56.3798 74.833 56.6422 74.9762 56.9284 74.9762C56.9284 74.9762 56.9761 74.9762 57 74.9762C57.3101 74.9523 57.5725 74.7376 57.6918 74.4513L59.7195 68.7977L65.5878 70.1097C65.8979 70.1813 66.208 70.062 66.3989 69.7996C66.5897 69.5372 66.6136 69.2032 66.4704 68.9408L60.5782 58.2538H60.5544ZM33.5983 43.2252C33.5983 34.0649 41.0649 26.5983 50.2252 26.5983C59.3855 26.5983 66.8521 34.0649 66.8521 43.2252C66.8521 52.3855 59.3855 59.8521 50.2252 59.8521C41.0649 59.8521 33.5983 52.4094 33.5983 43.2252ZM43.6889 72.2567L42.0191 67.605C41.876 67.2233 41.4704 67.0086 41.0887 67.104L36.27 68.1775L41.2796 59.1126C43.7605 60.52 46.6231 61.355 49.6527 61.4504L43.6889 72.2805V72.2567ZM59.3616 67.0802C58.98 66.9847 58.5744 67.2233 58.4313 67.5811L56.7615 72.2328L51.1317 62.0468L51.4895 61.3788C54.2567 61.188 56.8569 60.3769 59.1708 59.0649L64.1803 68.1298L59.3616 67.0563V67.0802Z" fill="white"/>
</g>
<defs>
<linearGradient id="paint0_linear_5004_4137" x1="0" y1="0" x2="195.5" y2="169.5" gradientUnits="userSpaceOnUse">
<stop stop-color="#00678E"/>
<stop offset="1" stop-color="#001D28"/>
</linearGradient>
<clipPath id="clip0_5004_4137">
<rect width="36.4504" height="50" fill="white" transform="translate(32 25)"/>
</clipPath>
</defs>
</svg>
