<svg width="42" height="42" viewBox="0 0 42 42" fill="none" xmlns="http://www.w3.org/2000/svg">
<circle opacity="0.5" cx="21" cy="21" r="20" stroke="white"/>
<g clip-path="url(#clip0_5004_4229)">
<path d="M25.2656 23.7383H23.1875C22.8855 23.7383 22.6406 23.4934 22.6406 23.1914C22.6406 22.8894 22.8855 22.6445 23.1875 22.6445H25.2656C26.1703 22.6445 26.9062 21.9085 26.9062 21.0039C26.9062 20.0686 26.2479 19.3633 25.375 19.3633C25.073 19.3633 24.8281 19.1184 24.8281 18.8164C24.8281 17.9118 24.0921 17.1758 23.1875 17.1758C23.0101 17.1758 22.8292 17.2099 22.6344 17.2802C22.4151 17.3593 22.1699 17.2907 22.0234 17.1094C21.4961 16.4565 20.7244 16.082 19.9062 16.082C18.3985 16.082 17.1719 17.3087 17.1719 18.8164C17.1719 19.1184 16.927 19.3633 16.625 19.3633C15.7521 19.3633 15.0938 20.0686 15.0938 21.0039C15.0938 21.9085 15.8297 22.6445 16.7344 22.6445H18.8125C19.1145 22.6445 19.3594 22.8894 19.3594 23.1914C19.3594 23.4934 19.1145 23.7383 18.8125 23.7383H16.7344C15.2266 23.7383 14 22.5116 14 21.0039C14 20.2736 14.2602 19.592 14.7326 19.0845C15.1044 18.6851 15.5818 18.4221 16.1103 18.3188C16.355 16.4423 17.9641 14.9883 19.9062 14.9883C20.9343 14.9883 21.9076 15.4057 22.6283 16.1449C22.8168 16.1031 23.0038 16.082 23.1875 16.082C24.5244 16.082 25.6404 17.0465 25.876 18.3162C26.41 18.4176 26.8924 18.6817 27.2674 19.0845C27.7398 19.592 28 20.2736 28 21.0039C28 22.5116 26.7734 23.7383 25.2656 23.7383Z" fill="white"/>
<path d="M25.2656 23.7383H23.1875C22.8855 23.7383 22.6406 23.4934 22.6406 23.1914C22.6406 22.8894 22.8855 22.6445 23.1875 22.6445H25.2656C26.1703 22.6445 26.9062 21.9085 26.9062 21.0039C26.9062 20.0686 26.2479 19.3633 25.375 19.3633C25.073 19.3633 24.8281 19.1184 24.8281 18.8164C24.8281 17.9118 24.0921 17.1758 23.1875 17.1758C23.0101 17.1758 22.8292 17.2099 22.6344 17.2802C22.4151 17.3593 22.1699 17.2907 22.0234 17.1094C21.4961 16.4565 20.7244 16.082 19.9062 16.082C18.3985 16.082 17.1719 17.3087 17.1719 18.8164C17.1719 19.1184 16.927 19.3633 16.625 19.3633C15.7521 19.3633 15.0938 20.0686 15.0938 21.0039C15.0938 21.9085 15.8297 22.6445 16.7344 22.6445H18.8125C19.1145 22.6445 19.3594 22.8894 19.3594 23.1914C19.3594 23.4934 19.1145 23.7383 18.8125 23.7383H16.7344C15.2266 23.7383 14 22.5116 14 21.0039C14 20.2736 14.2602 19.592 14.7326 19.0845C15.1044 18.6851 15.5818 18.4221 16.1103 18.3188C16.355 16.4423 17.9641 14.9883 19.9062 14.9883C20.9343 14.9883 21.9076 15.4057 22.6283 16.1449C22.8168 16.1031 23.0038 16.082 23.1875 16.082C24.5244 16.082 25.6404 17.0465 25.876 18.3162C26.41 18.4176 26.8924 18.6817 27.2674 19.0845C27.7398 19.592 28 20.2736 28 21.0039C28 22.5116 26.7734 23.7383 25.2656 23.7383Z" fill="white"/>
<path d="M23.0273 24.6641C22.8137 24.4505 22.4675 24.4505 22.2539 24.6641L21.5469 25.3711V19.9102C21.5469 19.6081 21.302 19.3633 21 19.3633C20.6979 19.3633 20.4531 19.6081 20.4531 19.9102V25.3711L19.7461 24.6641C19.5325 24.4505 19.1862 24.4505 18.9727 24.6641C18.7591 24.8776 18.7591 25.2239 18.9727 25.4375L20.2266 26.6914C20.4361 26.901 20.7102 27.0073 20.9855 27.0109C20.9904 27.0111 20.9951 27.0117 21 27.0117C21.0049 27.0117 21.0097 27.0111 21.0145 27.0109C21.2898 27.0073 21.5639 26.901 21.7735 26.6914L23.0274 25.4375C23.2409 25.2239 23.2409 24.8776 23.0273 24.6641Z" fill="white"/>
</g>
<defs>
<clipPath id="clip0_5004_4229">
<rect width="14" height="14" fill="white" transform="translate(14 14)"/>
</clipPath>
</defs>
</svg>
