<svg width="80" height="80" viewBox="0 0 80 80" fill="none" xmlns="http://www.w3.org/2000/svg">
<circle cx="40" cy="40" r="40" fill="url(#paint0_linear_5004_4441)"/>
<path d="M37.3147 42.9479C37.6179 43.1163 38.0053 43.0153 38.1905 42.7121L39.3526 40.691C39.5211 40.4047 39.8242 40.2195 40.1611 40.2195C40.4979 40.2195 40.8011 40.3879 40.9695 40.691L42.0474 42.5774L41.7274 42.4763C41.3906 42.3753 41.0369 42.5605 40.9358 42.8974C40.8348 43.2342 41.02 43.5879 41.3569 43.689L43.2095 44.2616C43.5127 44.3626 43.8664 44.1942 43.9843 43.9079L44.7253 42.1732C44.86 41.8532 44.7253 41.4658 44.3885 41.331C44.0685 41.1963 43.6811 41.331 43.5464 41.6679L43.3106 42.2405C43.3106 42.2405 43.2937 42.1226 43.26 42.0721L42.0979 40.051C41.6937 39.3605 40.9863 38.9395 40.1779 38.9395C39.3695 38.9395 38.6621 39.3605 38.2579 40.051L37.0958 42.0721C36.9274 42.3753 37.0284 42.7626 37.3316 42.9479H37.3147Z" fill="white"/>
<path d="M44.2533 45.187C43.9502 45.3554 43.8323 45.7596 44.0175 46.0628L44.5059 46.9218C44.6744 47.2081 44.6744 47.5449 44.5059 47.8481C44.3375 48.1344 44.0512 48.3028 43.7144 48.3028H42.5354L42.7375 48.1176C42.9901 47.8818 43.007 47.4776 42.7712 47.2081C42.5354 46.9554 42.1312 46.9386 41.8617 47.1744L40.3964 48.5386C40.2617 48.6565 40.1943 48.8249 40.1943 49.0102C40.1943 49.1955 40.2617 49.3639 40.3964 49.4818L41.7101 50.7281C41.9459 50.9471 42.3838 50.9471 42.6196 50.6944C42.8554 50.4418 42.8554 50.0376 42.5859 49.7849L42.367 49.5828H43.7312C44.5228 49.5828 45.2302 49.1786 45.6344 48.4881C46.0386 47.7976 46.0386 46.9723 45.6344 46.2986L45.1459 45.4396C44.9775 45.1365 44.5733 45.0186 44.2702 45.2039L44.2533 45.187Z" fill="white"/>
<path d="M34.4684 45.6754L35.0747 45.5744L34.6705 46.2817C34.2831 46.9723 34.2831 47.7975 34.6705 48.4712C35.0747 49.1618 35.7821 49.566 36.5737 49.566H38.2073C38.561 49.566 38.8474 49.2797 38.8474 48.926C38.8474 48.5723 38.561 48.286 38.2073 48.286H36.5737C36.2368 48.286 35.9505 48.1175 35.7821 47.8312C35.6136 47.5449 35.6136 47.2081 35.7821 46.9049L36.1189 46.3154L36.2031 46.6017C36.4389 47.3765 37.6684 47.006 37.4158 46.2144L36.8768 44.5302C36.7758 44.227 36.4726 44.0417 36.1694 44.0923L34.2494 44.4123C33.8957 44.4628 33.6599 44.7996 33.7273 45.1533C33.7778 45.507 34.1147 45.7428 34.4684 45.6754Z" fill="white"/>
<path d="M50.3833 32.9597H47.1833C46.8296 32.9597 46.5433 33.246 46.5433 33.5997C46.5433 33.9534 46.8296 34.2397 47.1833 34.2397H50.3833C50.737 34.2397 51.0233 34.526 51.0233 34.8797C51.0233 35.2334 50.737 35.5197 50.3833 35.5197H29.9032C29.5495 35.5197 29.2632 35.2334 29.2632 34.8797C29.2632 34.526 29.5495 34.2397 29.9032 34.2397H44.6233C44.977 34.2397 45.2633 33.9534 45.2633 33.5997C45.2633 33.246 44.977 32.9597 44.6233 32.9597H43.057L37.4485 27.3344C36.8759 26.7786 35.9832 26.6439 35.2758 26.9639L34.7369 26.4249C33.9958 25.6839 32.7664 25.6839 32.0253 26.4249L31.1158 27.3344C30.3748 28.0755 30.3748 29.305 31.1158 30.046L31.6548 30.585C31.3179 31.3092 31.4358 32.185 32.0253 32.7745L32.2106 32.9597H29.92C28.859 32.9597 28 33.8187 28 34.8797C28 35.9408 28.859 36.7997 29.92 36.7997H30.0042L32.6653 55.4441C32.7158 55.7641 32.9853 55.9999 33.3053 55.9999H47.0149C47.3349 55.9999 47.6044 55.7641 47.6549 55.4441L50.316 36.7997H50.4002C51.4612 36.7997 52.3202 35.9408 52.3202 34.8797C52.3202 33.8187 51.4612 32.9597 50.4002 32.9597H50.3833ZM35.6295 28.2439C35.8653 28.0081 36.3032 28.0081 36.539 28.2439L41.2548 32.9597H34.0127L32.9179 31.865C32.6653 31.6123 32.6653 31.2081 32.9179 30.9555L35.6295 28.2439ZM32.0085 29.1534C31.7558 28.9007 31.7558 28.4965 32.0085 28.2439L32.9179 27.3344C33.1706 27.0818 33.5748 27.0818 33.8274 27.3344L34.2822 27.7892L32.4632 29.6081L32.0085 29.1534ZM46.4422 54.7199H33.8443L33.659 53.4399H46.6275L46.4422 54.7199ZM46.8128 52.1599H33.4737L31.2842 36.7997H49.0191L46.8296 52.1599H46.8128Z" fill="white"/>
<path d="M43.3431 31.6801H48.4631C48.6989 31.6801 48.9347 31.5453 49.0358 31.3264L49.4231 30.5516C50.0463 29.3053 50.3831 27.9074 50.3831 26.5095V24.64C50.3831 24.2863 50.0968 24 49.7431 24H44.6231C44.2694 24 43.9831 24.2863 43.9831 24.64V26.4926C43.9831 27.6884 43.6968 28.9011 43.1578 29.9621L42.7705 30.7369C42.6694 30.939 42.6862 31.1748 42.8041 31.3601C42.922 31.5453 43.1241 31.6632 43.3431 31.6632V31.6801ZM45.2631 26.4926V25.28H49.1031V26.4926C49.1031 27.6884 48.8168 28.9011 48.2779 29.9621L48.0589 30.3832H44.3705C44.9431 29.1706 45.2631 27.8232 45.2631 26.4758V26.4926Z" fill="white"/>
<defs>
<linearGradient id="paint0_linear_5004_4441" x1="0" y1="0" x2="156.4" y2="135.6" gradientUnits="userSpaceOnUse">
<stop stop-color="#00678E"/>
<stop offset="1" stop-color="#001D28"/>
</linearGradient>
</defs>
</svg>
