<svg width="80" height="80" viewBox="0 0 80 80" fill="none" xmlns="http://www.w3.org/2000/svg">
<circle cx="40" cy="40" r="40" fill="url(#paint0_linear_5004_4467)"/>
<g clip-path="url(#clip0_5004_4467)">
<path d="M39.0479 56.9851C38.4644 56.9083 37.8655 56.8469 37.2974 56.7394C33.7657 56.1252 30.7715 54.5129 28.2993 51.9026C28.2225 51.8258 28.1611 51.7337 28.069 51.6262C27.7465 51.8872 27.4701 52.1329 27.1784 52.3786C26.8559 52.655 26.5028 52.7625 26.1035 52.5628C25.7043 52.3786 25.5508 52.0408 25.5508 51.6262C25.5508 49.9371 25.5508 48.2481 25.5508 46.559C25.5508 45.8373 26.0421 45.4227 26.7638 45.5456C27.2245 45.6224 27.6851 45.6991 28.1458 45.7759C28.1611 45.7759 28.1918 45.7759 28.2379 45.7605C28.2072 45.6684 28.1918 45.5916 28.1611 45.5149C25.5815 38.6358 29.236 31.0964 36.2379 28.8853C41.0133 27.3805 46.3108 28.916 49.5815 32.7394C49.8579 33.0772 49.8425 33.2922 49.5047 33.584C49.1208 33.9064 48.7369 34.2289 48.2916 34.5974C50.0575 34.9045 51.7465 35.1962 53.4509 35.488V30.2519C53.0671 30.5744 52.7293 30.8508 52.3914 31.1425C51.8847 31.5724 51.7465 31.5571 51.3166 31.0657C48.8291 28.2711 45.758 26.5667 42.0421 26.0446C34.0728 24.9391 26.5949 30.3748 25.1669 38.3287C24.7984 40.3863 24.8598 42.4285 25.3358 44.4707C25.3358 44.5168 25.3665 44.5782 25.3665 44.6243C25.4279 44.9467 25.3051 45.1771 25.044 45.2385C24.7676 45.2999 24.522 45.1617 24.4605 44.8239C24.3377 44.2404 24.1995 43.6569 24.1381 43.0734C23.6007 38.5437 24.7062 34.4438 27.593 30.8968C30.2801 27.5801 33.8118 25.5993 38.0805 25.1233C43.4855 24.5245 48.0613 26.2596 51.7926 30.2058C51.8233 30.2366 51.854 30.298 51.9001 30.3748C52.2072 30.1137 52.4989 29.8834 52.76 29.6531C53.0978 29.3613 53.4509 29.2385 53.8809 29.4381C54.2801 29.6377 54.4183 29.9755 54.4183 30.4208C54.4183 31.5724 54.4183 32.7087 54.4183 33.8604C54.4183 34.0139 54.449 34.1675 54.5104 34.3057C55.3089 36.0561 55.8003 37.8834 55.9385 39.8028C55.9385 39.8795 55.9692 39.941 55.9845 40.0177V41.9525C55.9231 42.4285 55.877 42.9199 55.8003 43.3959C55.2628 46.82 53.7888 49.7836 51.3626 52.2557C51.1323 52.5014 50.8406 52.5168 50.641 52.3325C50.426 52.1329 50.4413 51.8719 50.687 51.6108C50.9174 51.3498 51.163 51.1195 51.378 50.8584C54.4644 47.1732 55.5853 42.9506 54.7715 38.2212C54.6486 37.5149 54.4337 36.8392 54.2494 36.0868C53.8809 36.4861 53.497 36.5168 53.0671 36.4247C52.6218 36.3325 52.1765 36.2711 51.7158 36.1943C51.7158 36.2557 51.7158 36.2711 51.7158 36.2865C51.7312 36.3479 51.7619 36.4093 51.7772 36.4554C52.5757 38.5437 52.806 40.6934 52.4836 42.9045C51.6544 48.6319 46.8636 53.1771 41.0594 53.607C36.7907 53.9294 33.2283 52.4554 30.3722 49.2615C30.0805 48.939 30.1112 48.7087 30.449 48.417C30.8329 48.0945 31.2168 47.7567 31.6621 47.3882C29.9116 47.0811 28.2072 46.7893 26.5028 46.4976V51.7337C26.9174 51.3805 27.2859 51.0734 27.6544 50.7663C28.0383 50.4592 28.2225 50.4746 28.5603 50.8277C29.1131 51.3959 29.6506 52.0101 30.2648 52.5168C34.0575 55.6185 38.3722 56.6934 43.1784 55.726C45.3588 55.2807 47.3089 54.344 49.0747 53.0081C49.4126 52.7625 49.6889 52.7625 49.8732 53.0081C50.0575 53.2538 49.9807 53.4995 49.6275 53.7605C47.5699 55.3268 45.2667 56.3402 42.7177 56.7701C42.1189 56.8776 41.5047 56.939 40.9058 57.0158H39.0325L39.0479 56.9851ZM48.6602 33.0926C46.5565 30.8661 44.0383 29.5456 41.0287 29.3306C36.7446 29.0081 33.1976 30.5437 30.6333 33.9986C27.9461 37.6224 27.5776 41.6147 29.3127 45.7913C29.3895 45.9602 29.4663 46.0523 29.6659 46.083C30.3569 46.1905 31.0325 46.3287 31.7235 46.4362C32.1688 46.5129 32.4913 46.7126 32.5987 47.1579C32.7062 47.5878 32.522 47.9256 32.1841 48.202C31.9078 48.4323 31.6314 48.6627 31.3396 48.9083C31.4164 49.0005 31.4778 49.0772 31.5546 49.1387C35.5008 53.2999 42.0268 53.9141 46.7561 50.582C51.3166 47.3575 52.9903 41.2922 50.7024 36.2404C50.6102 36.0561 50.5181 35.9486 50.3031 35.9179C49.6122 35.8105 48.9365 35.6723 48.2456 35.5648C47.831 35.5033 47.5239 35.2884 47.4164 34.8738C47.2936 34.4592 47.4625 34.1214 47.7849 33.8604C48.0767 33.63 48.3531 33.3843 48.6602 33.108V33.0926Z" fill="white"/>
<path d="M39.9544 32.2336C39.4784 32.725 39.0177 33.1856 38.6031 33.6616C37.1291 35.4121 35.8699 37.3161 35.0715 39.4812C34.6722 40.5714 34.5187 41.677 34.749 42.8286C35.1175 44.6098 36.2845 45.5772 37.9889 45.9764C38.4803 46.0992 38.987 46.1453 39.5244 46.2221C39.5244 45.6079 39.5244 45.0705 39.5244 44.533C39.5244 44.4255 39.417 44.3181 39.3248 44.2413C38.3114 43.2125 37.2826 42.1991 36.2538 41.1703C36.177 41.0935 36.1003 41.0321 36.0388 40.9399C35.9006 40.7403 35.9006 40.5253 36.0849 40.3411C36.2538 40.1568 36.4688 40.1415 36.6838 40.295C36.7759 40.3564 36.8373 40.4332 36.9141 40.51C37.7586 41.3545 38.6031 42.1991 39.4937 43.0896C39.5091 42.9668 39.5244 42.89 39.5244 42.8133C39.5244 41.7538 39.5244 40.7096 39.5244 39.6501C39.5244 39.5119 39.4477 39.343 39.3555 39.2509C38.8181 38.6981 38.2653 38.1607 37.7279 37.6079C37.6665 37.5465 37.6051 37.485 37.559 37.4236C37.3747 37.2087 37.3747 36.9476 37.559 36.7787C37.7433 36.5791 38.0043 36.5637 38.2346 36.7787C38.5878 37.1165 38.9256 37.4697 39.2788 37.8075C39.3555 37.8843 39.4323 37.9457 39.5552 38.0685C39.5552 37.8843 39.5552 37.7768 39.5552 37.6693C39.5552 36.6252 39.5552 35.581 39.5552 34.5369C39.5552 34.2144 39.7241 34.0455 39.9851 34.0301C40.2461 34.0148 40.4304 34.1683 40.4765 34.4447C40.4765 34.5522 40.4765 34.6597 40.4765 34.7518C40.4765 35.7192 40.4765 36.6866 40.4765 37.6539V37.9764C40.4765 37.9764 40.5225 37.9918 40.5532 38.0071C40.9525 37.5925 41.3671 37.1779 41.7816 36.7787C41.9506 36.6098 42.1809 36.533 42.3651 36.7019C42.488 36.8094 42.5494 37.0397 42.5494 37.2087C42.5494 37.3161 42.4266 37.439 42.3344 37.5311C41.7816 38.0992 41.2135 38.652 40.6607 39.2202C40.584 39.2969 40.4918 39.4198 40.4918 39.5273C40.4918 40.6789 40.4918 41.8305 40.4918 43.0743C40.6147 42.9668 40.6761 42.89 40.7529 42.8286C41.536 42.0455 42.3191 41.2624 43.1022 40.4793C43.1636 40.4179 43.225 40.3411 43.3018 40.2797C43.5168 40.1108 43.7317 40.1108 43.916 40.3104C44.1003 40.4946 44.1156 40.7096 43.9621 40.9246C43.9006 41.0014 43.8392 41.0628 43.7625 41.1242C42.7337 42.153 41.7049 43.1664 40.6914 44.1952C40.584 44.3181 40.4918 44.5177 40.4918 44.6712C40.4918 46.3142 40.4918 47.9419 40.4918 49.5848C40.4918 49.6923 40.4918 49.7998 40.4918 49.8919C40.4611 50.1683 40.2768 50.3372 40.0312 50.3526C39.7701 50.3526 39.5705 50.1683 39.5705 49.8766C39.5705 49.0781 39.5552 48.2797 39.5705 47.4658C39.5705 47.1741 39.4784 47.082 39.1866 47.0666C38.2653 47.0052 37.3747 46.8209 36.5302 46.4217C34.8104 45.5925 33.9506 44.2106 33.7663 42.3372C33.6281 40.9399 33.9659 39.6194 34.5187 38.3603C35.5475 36.0263 36.9602 33.9534 38.726 32.1415C38.9563 31.9111 39.2173 31.6962 39.4937 31.4966C39.8469 31.2355 40.2154 31.2355 40.5532 31.4966C40.7682 31.6501 40.9985 31.819 41.1828 32.0186C43.225 34.1069 44.8373 36.4716 45.8507 39.2202C46.296 40.4486 46.4496 41.723 46.1732 43.0282C45.7279 45.1012 44.3767 46.2835 42.3805 46.8363C42.2577 46.867 42.1348 46.8977 42.012 46.9131C41.7356 46.9591 41.5053 46.8363 41.4438 46.5906C41.3671 46.3296 41.5053 46.0992 41.7816 46.0071C42.1041 45.8996 42.4266 45.8382 42.7337 45.7154C44.7298 44.963 45.4669 43.2893 45.344 41.2624C45.2826 40.3104 44.9755 39.4044 44.5763 38.5445C43.5782 36.3795 42.2577 34.4294 40.584 32.7403C40.415 32.5714 40.2308 32.4179 39.9697 32.2029L39.9544 32.2336Z" fill="white"/>
</g>
<defs>
<linearGradient id="paint0_linear_5004_4467" x1="0" y1="0" x2="156.4" y2="135.6" gradientUnits="userSpaceOnUse">
<stop stop-color="#00678E"/>
<stop offset="1" stop-color="#001D28"/>
</linearGradient>
<clipPath id="clip0_5004_4467">
<rect width="32" height="32" fill="white" transform="translate(24 25)"/>
</clipPath>
</defs>
</svg>
