<svg width="80" height="80" viewBox="0 0 80 80" fill="none" xmlns="http://www.w3.org/2000/svg">
<circle cx="40" cy="40" r="40" fill="url(#paint0_linear_5004_4454)"/>
<path d="M36.2474 47.542H37.7061C37.0305 48.7551 36.2628 49.7378 35.5104 50.8894C34.758 49.7839 34.067 48.7551 33.2839 47.5881C33.8674 47.5574 34.2973 47.542 34.758 47.5267V43.9796C34.589 43.9796 34.4048 43.9489 34.2205 43.9489C32.5929 43.9489 30.9806 43.9489 29.353 43.9489C26.7272 43.9489 24.6236 42.2906 24.1169 39.8338C23.5948 37.3462 24.8539 35.0123 27.2493 33.9528C27.4182 33.876 27.5871 33.7532 27.6793 33.5996C29.0612 31.066 31.2724 29.9297 34.0516 29.6841C34.3894 29.6533 34.5737 29.5459 34.7733 29.2848C38.3203 24.5401 45.4605 25.0161 48.3472 30.1908C48.47 30.4211 48.7004 30.6207 48.9307 30.7436C50.113 31.3424 51.0343 32.2023 51.7253 33.3386C51.8482 33.5382 52.0785 33.7224 52.3088 33.7839C54.781 34.567 56.3319 37.0084 55.948 39.5267C55.5487 42.091 53.4144 43.9336 50.804 43.9489C49.0535 43.9489 47.3184 43.9489 45.5679 43.9489C45.4605 43.9489 45.3683 43.9643 45.2301 43.9796V47.542H46.52L46.6428 47.6956C45.9518 48.7244 45.2455 49.7532 44.4931 50.8894C43.7407 49.7685 43.0497 48.7397 42.2512 47.5727H43.7867C43.7867 47.2963 43.7867 47.0814 43.7867 46.8818C43.7867 45.7762 43.7867 44.6553 43.7867 43.5497C43.7867 42.7052 43.971 42.5209 44.8002 42.5209C46.7503 42.5209 48.7157 42.5209 50.6658 42.5209C52.1399 42.5209 53.2915 41.9067 54.0439 40.6322C55.3798 38.3597 53.9518 35.4269 51.3414 35.0737C50.9576 35.0276 50.804 34.8587 50.6658 34.5363C50.113 33.2618 49.1764 32.3712 47.8712 31.8798C47.6562 31.8031 47.4259 31.5881 47.3184 31.3885C46.1361 29.0238 44.2474 27.6111 41.591 27.4729C38.9192 27.3347 36.8616 28.5171 35.4643 30.805C35.2954 31.0967 35.0958 31.1581 34.7887 31.1428C32.6543 31.066 30.8271 31.7416 29.4758 33.4461C29.1226 33.8913 29.0152 34.5516 28.6159 34.9355C28.232 35.304 27.5871 35.3501 27.1265 35.6572C25.7599 36.5171 25.1303 38.2061 25.5449 39.7109C26.0056 41.3539 27.3107 42.4748 28.9844 42.5209C31.0113 42.567 33.0382 42.5363 35.0651 42.5516C36.0631 42.5516 36.2013 42.6898 36.2013 43.6879C36.2013 44.7935 36.2013 45.9144 36.2013 47.0199C36.2013 47.1889 36.2013 47.3578 36.232 47.5881L36.2474 47.542Z" fill="white"/>
<path d="M38.3822 36.3178C38.3822 33.7535 40.6854 32.3101 42.9733 33.4617C44.0328 33.9991 44.6317 35.2122 44.5088 36.6402C44.386 38.1143 43.695 39.097 42.482 39.4348C40.5165 39.9876 38.3514 39.0663 38.3822 36.3331V36.3178ZM39.9177 36.1949C39.9791 36.6095 39.9944 36.8705 40.0712 37.1162C40.2708 37.8379 40.7468 38.2218 41.4071 38.2218C42.1134 38.2218 42.6816 37.8379 42.7891 37.1009C42.8658 36.4867 42.8505 35.7803 42.6509 35.2122C42.2977 34.2295 40.839 34.1373 40.3015 35.0433C40.0712 35.4118 40.0252 35.8878 39.9177 36.1949Z" fill="white"/>
<path d="M33.2537 36.441C33.3305 36.7635 33.3612 37.1474 33.484 37.4852C33.6683 37.9765 34.0675 38.2222 34.5896 38.2376C35.1117 38.2529 35.5109 38.0687 35.7566 37.5927C35.818 37.4698 35.8794 37.347 35.9255 37.2088C36.079 36.7942 36.4015 36.6406 36.8161 36.7635C37.2307 36.8863 37.3689 37.2241 37.2921 37.6541C37.1232 38.4679 36.6318 39.0667 35.8641 39.3585C34.2057 39.9727 32.0253 39.4199 31.7489 36.8863C31.6875 36.3182 31.7182 35.704 31.8871 35.1665C32.532 33.0936 35.2038 32.4026 36.7086 33.9074C36.985 34.1838 37.1539 34.5677 37.2767 34.9516C37.3842 35.3047 37.2 35.6733 36.8468 35.7347C36.5858 35.7807 36.2787 35.5965 36.0176 35.4583C35.9101 35.4122 35.8641 35.228 35.7873 35.1051C35.5109 34.6291 35.1117 34.3834 34.5589 34.4449C33.9754 34.5063 33.5915 34.8441 33.4226 35.4122C33.3305 35.7347 33.2998 36.0725 33.2384 36.441H33.2537Z" fill="white"/>
<path d="M40.0098 54.6984C39.2727 53.6082 38.5971 52.5947 37.8447 51.4585H39.3649C39.3649 51.1974 39.3649 51.0132 39.3649 50.8289C39.3649 48.2953 39.3649 45.7464 39.3649 43.2128C39.3649 42.5986 39.933 42.2608 40.4551 42.5986C40.5779 42.6754 40.6394 42.9517 40.6394 43.1514C40.6394 45.6849 40.6394 48.2339 40.6394 50.7675C40.6394 50.9825 40.6394 51.1821 40.6394 51.4585H41.9752C41.9752 51.4585 42.052 51.5506 42.0827 51.5967C41.4071 52.6101 40.7315 53.6082 39.9944 54.7291L40.0098 54.6984Z" fill="white"/>
<path d="M47.3491 38.7741C47.5334 38.7895 47.7637 38.7741 47.948 38.8509C48.1169 38.9277 48.3319 39.1426 48.3165 39.2808C48.3012 39.4497 48.0862 39.7415 47.948 39.7569C47.3184 39.8029 46.6735 39.8183 46.044 39.7569C45.5987 39.7108 45.4605 39.2194 45.7676 38.8048C46.0132 38.4824 46.3357 38.2213 46.6121 37.945C46.7196 37.8528 46.8578 37.7914 46.9345 37.6686C47.042 37.4997 47.1035 37.3154 47.1649 37.1158C47.1649 37.0851 46.996 36.9622 46.9806 36.9776C46.8424 37.0851 46.6735 37.1926 46.5967 37.3307C46.4278 37.6071 46.1975 37.8221 45.9211 37.6225C45.7522 37.4997 45.6294 37.1465 45.6601 36.9315C45.7215 36.4402 46.1821 36.1331 46.781 36.0563C47.3952 35.9795 47.9019 36.1945 48.1322 36.6551C48.3779 37.1465 48.3012 37.6071 47.9633 38.0371C47.7637 38.2828 47.5641 38.5131 47.3491 38.7588V38.7741Z" fill="white"/>
<defs>
<linearGradient id="paint0_linear_5004_4454" x1="0" y1="0" x2="156.4" y2="135.6" gradientUnits="userSpaceOnUse">
<stop stop-color="#00678E"/>
<stop offset="1" stop-color="#001D28"/>
</linearGradient>
</defs>
</svg>
