<svg width="194" height="60" viewBox="0 0 194 60" fill="none" xmlns="http://www.w3.org/2000/svg">
<g clip-path="url(#clip0_5004_4357)">
<path d="M22.2233 6.30078V12.3619H6.06117V16.4017H22.2233V22.4629H6.06117V34.5837H0V6.30078H22.2233Z" fill="white"/>
<path d="M49.817 6.30078V12.3619H33.6549V16.4017H47.7971V22.4629H33.6549V28.524H49.817V34.5852H27.5938V6.30078H49.817Z" fill="white"/>
<path d="M79.4306 16.4017C79.4306 22.3011 76.8453 25.6136 71.6731 26.3408L79.916 34.5837H71.3496L61.2487 24.4827V34.5837H55.1875V6.30078H69.3297C76.0642 6.30078 79.4306 9.66724 79.4306 16.4017ZM69.3297 20.4414C72.0229 20.4414 73.3695 19.0949 73.3695 16.4017C73.3695 13.7085 72.0229 12.3619 69.3297 12.3619H61.2487V20.443H69.3297V20.4414Z" fill="white"/>
<path d="M96.9233 25.9741L104.337 6.30078H110.964L96.9233 40.8836L82.8828 6.30078H89.5094L96.9233 25.9741Z" fill="white"/>
<path d="M136.641 6.30078V12.3619H120.479V16.4017H134.621V22.4629H120.479V28.524H136.641V34.5852H114.418V6.30078H136.641Z" fill="white"/>
<path d="M148.073 18.5641V34.5844H142.012V0L160.194 22.3219V6.30152H166.255V40.8844L148.073 18.5641Z" fill="white"/>
<path d="M193.848 6.30078V12.3619H185.767V34.5852H179.706V12.3619H171.625V6.30078H193.848Z" fill="white"/>
<path d="M7.97248 58.3325L13.3265 46.9405C13.4697 46.6216 13.6346 46.4629 13.8195 46.4629C13.9705 46.4629 14.0752 46.5045 14.1369 46.5892C14.1985 46.674 14.2432 46.8388 14.2709 47.0869L15.6036 59.0721C15.6175 59.2092 15.6237 59.3124 15.6237 59.3833C15.6237 59.6499 15.4696 59.7824 15.1614 59.7824C14.9966 59.7824 14.8826 59.7423 14.8179 59.6606C14.7532 59.579 14.7069 59.4157 14.6792 59.1692L13.4898 48.4889L8.47321 59.2462C8.36382 59.4742 8.27908 59.6206 8.21745 59.6853C8.15582 59.75 8.07416 59.7824 7.97094 59.7824C7.86154 59.7824 7.77835 59.75 7.7198 59.6853C7.66125 59.6206 7.57805 59.4742 7.46866 59.2462L2.47367 48.4889L1.3243 59.1599C1.29656 59.4126 1.25034 59.5805 1.18563 59.6622C1.12092 59.7438 1.00691 59.7839 0.842054 59.7839C0.541615 59.7839 0.390625 59.6468 0.390625 59.3741C0.390625 59.3417 0.40141 59.2446 0.421439 59.0813L1.73413 47.0961C1.75416 46.8619 1.7973 46.7017 1.86201 46.6139C1.92672 46.5261 2.03148 46.4829 2.17477 46.4829C2.36582 46.4829 2.53376 46.6385 2.67704 46.9513L7.96939 58.3325H7.97248Z" fill="white"/>
<path d="M19.7686 52.3012V56.4919C19.7686 57.3424 19.8641 57.9402 20.0551 58.2853C20.2123 58.578 20.4711 58.8138 20.8301 58.9925C21.1891 59.1712 21.5835 59.2606 22.0149 59.2606C22.4463 59.2606 22.8299 59.1712 23.1889 58.9925C23.5479 58.8138 23.8052 58.578 23.9639 58.2853C24.155 57.9417 24.2505 57.3439 24.2505 56.4919V52.3012C24.2505 52.0485 24.2813 51.8744 24.3429 51.7804C24.4046 51.6864 24.5139 51.6387 24.6711 51.6387C24.8283 51.6387 24.9469 51.6864 25.0039 51.7804C25.0624 51.8744 25.0917 52.0485 25.0917 52.3012V56.7739C25.0917 57.3455 25.047 57.7923 24.9577 58.1143C24.8683 58.4363 24.705 58.7306 24.4646 58.9956C23.8761 59.6642 23.0595 59.9986 22.0134 59.9986C20.9672 59.9986 20.1368 59.6642 19.5421 58.9956C19.3094 58.7352 19.1492 58.444 19.0598 58.1189C18.9705 57.7938 18.9258 57.3455 18.9258 56.7739V52.3012C18.9258 52.0485 18.9566 51.8744 19.0182 51.7804C19.0799 51.6864 19.1892 51.6387 19.3464 51.6387C19.5035 51.6387 19.6129 51.6864 19.6746 51.7804C19.7362 51.8744 19.767 52.0485 19.767 52.3012H19.7686Z" fill="white"/>
<path d="M28.9272 45.8999V59.1238C28.9272 59.3765 28.8964 59.5506 28.8347 59.6446C28.7731 59.7385 28.6637 59.7863 28.5066 59.7863C28.3494 59.7863 28.24 59.7385 28.1784 59.6446C28.1168 59.5506 28.0859 59.3765 28.0859 59.1238V45.8999C28.0859 45.6395 28.1152 45.4623 28.1738 45.3683C28.2323 45.2743 28.3432 45.2266 28.5066 45.2266C28.6699 45.2266 28.7823 45.2743 28.8393 45.3683C28.8979 45.4623 28.9272 45.6395 28.9272 45.8999Z" fill="white"/>
<path d="M32.8482 52.3699V59.1229C32.8482 59.3756 32.8174 59.5497 32.7557 59.6436C32.6941 59.7376 32.5847 59.7854 32.4276 59.7854C32.2704 59.7854 32.161 59.7376 32.0994 59.6436C32.0378 59.5497 32.007 59.3756 32.007 59.1229V52.3699H31.7512C31.4908 52.3699 31.3121 52.3437 31.2119 52.2914C31.1133 52.239 31.0625 52.145 31.0625 52.0094C31.0625 51.8738 31.1118 51.7691 31.2119 51.7167C31.3106 51.6643 31.4908 51.6381 31.7512 51.6381H32.007V49.3871C32.007 49.1344 32.0378 48.9603 32.0994 48.8664C32.161 48.7724 32.2704 48.7246 32.4276 48.7246C32.5847 48.7246 32.6941 48.7724 32.7557 48.8664C32.8174 48.9603 32.8482 49.1344 32.8482 49.3871V51.6381H33.6478C33.9082 51.6381 34.0869 51.6643 34.1871 51.7167C34.2857 51.7691 34.3365 51.8661 34.3365 52.0094C34.3365 52.1527 34.2872 52.2405 34.1871 52.2914C34.0885 52.3437 33.9082 52.3699 33.6478 52.3699H32.8482Z" fill="white"/>
<path d="M36.4144 48.1992C36.627 48.1992 36.8057 48.2686 36.9521 48.4088C37.0985 48.549 37.1724 48.7215 37.1724 48.9295C37.1724 49.1375 37.0985 49.3039 36.9521 49.4457C36.8057 49.5889 36.6285 49.6598 36.4236 49.6598C36.2187 49.6598 36.0323 49.5889 35.8844 49.4457C35.7365 49.3024 35.6641 49.1267 35.6641 48.9203C35.6641 48.7246 35.738 48.5567 35.8844 48.4134C36.0308 48.2701 36.2079 48.1992 36.4128 48.1992H36.4144ZM36.8458 52.3021V59.1229C36.8458 59.3756 36.815 59.5497 36.7533 59.6436C36.6917 59.7376 36.5823 59.7854 36.4252 59.7854C36.268 59.7854 36.1586 59.7376 36.097 59.6436C36.0354 59.5497 36.0046 59.3756 36.0046 59.1229V52.3021C36.0046 52.0495 36.0354 51.8754 36.097 51.7814C36.1586 51.6874 36.268 51.6396 36.4252 51.6396C36.5823 51.6396 36.6917 51.6874 36.7533 51.7814C36.815 51.8754 36.8458 52.0495 36.8458 52.3021Z" fill="white"/>
<path d="M40.685 53.0518C41.5324 51.9934 42.654 51.4634 44.0499 51.4634C45.2871 51.4634 46.3024 51.8624 47.0959 52.662C47.8478 53.4216 48.2237 54.4262 48.2237 55.6726C48.2237 57.0238 47.783 58.1023 46.9002 58.9081C46.1067 59.6353 45.153 59.9989 44.0391 59.9989C43.3211 59.9989 42.6771 59.8556 42.1055 59.5706C41.5339 59.2856 41.0609 58.8696 40.685 58.3226V59.1223C40.685 59.3688 40.6542 59.5413 40.5925 59.6384C40.5309 59.7355 40.4215 59.7848 40.2644 59.7848C40.1072 59.7848 39.9978 59.737 39.9362 59.643C39.8746 59.549 39.8438 59.3749 39.8438 59.1223V45.8891C39.8438 45.6364 39.873 45.4623 39.9316 45.3683C39.9901 45.2743 40.101 45.2266 40.2644 45.2266C40.4277 45.2266 40.5401 45.2743 40.5972 45.3683C40.6557 45.4623 40.685 45.6364 40.685 45.8891V53.0518ZM44.0083 52.2044C43.0238 52.2044 42.1625 52.5788 41.423 53.3246C40.8961 53.8576 40.6326 54.6265 40.6326 55.6341C40.6326 56.7912 40.9854 57.6971 41.6895 58.3534C42.3258 58.9574 43.0947 59.2594 43.9975 59.2594C45.0714 59.2594 45.9388 58.8434 46.6029 58.0114C47.102 57.3812 47.3516 56.5862 47.3516 55.6233C47.3516 54.5186 46.9649 53.645 46.193 53.0025C45.5506 52.4695 44.8218 52.2029 44.0083 52.2029V52.2044Z" fill="white"/>
<path d="M54.5925 51.4625C55.8652 51.4625 56.9483 51.9016 57.8434 52.7782C58.6569 53.5717 59.0637 54.5547 59.0637 55.7303C59.0637 57.0815 58.5398 58.1692 57.4937 58.995C56.6463 59.6637 55.6649 59.998 54.5494 59.998C53.7359 59.998 52.9655 59.79 52.2414 59.374C51.5096 58.958 50.9549 58.3988 50.579 57.6977C50.2508 57.0938 50.0859 56.4143 50.0859 55.6609C50.0859 54.4915 50.5435 53.4885 51.4603 52.6504C52.3354 51.8584 53.3784 51.4609 54.5894 51.4609L54.5925 51.4625ZM54.5109 52.2036C53.417 52.2036 52.5141 52.6165 51.8023 53.4408C51.2415 54.0971 50.9611 54.8798 50.9611 55.7888C50.9611 56.7564 51.3231 57.5853 52.0488 58.274C52.7329 58.9303 53.5633 59.2585 54.5417 59.2585C55.6911 59.2585 56.6371 58.8363 57.3828 57.992C57.9235 57.368 58.1932 56.6146 58.1932 55.7318C58.1932 54.6995 57.828 53.8506 57.0962 53.1881C56.3705 52.5317 55.5092 52.2036 54.5109 52.2036Z" fill="white"/>
<path d="M68.4801 58.3237C68.1797 58.752 67.8438 59.0863 67.4756 59.3267C66.7715 59.775 65.9919 59.9984 65.1368 59.9984C63.8302 59.9984 62.7672 59.527 61.946 58.5856C61.2757 57.8122 60.9414 56.8415 60.9414 55.6721C60.9414 54.2423 61.4267 53.1423 62.3974 52.3688C63.1631 51.7649 64.0691 51.4629 65.1152 51.4629C66.5034 51.4629 67.625 51.9929 68.4801 53.0514V52.301C68.4801 52.0484 68.5109 51.8743 68.5726 51.7803C68.6342 51.6863 68.7436 51.6385 68.9007 51.6385C69.0579 51.6385 69.1673 51.6863 69.2289 51.7803C69.2905 51.8743 69.3213 52.0484 69.3213 52.301V59.1218C69.3213 59.3745 69.2905 59.5486 69.2289 59.6425C69.1673 59.7365 69.0579 59.7843 68.9007 59.7843C68.7436 59.7843 68.6249 59.7365 68.5679 59.6425C68.5094 59.5486 68.4801 59.3745 68.4801 59.1218V58.3221V58.3237ZM65.1368 52.204C64.1939 52.204 63.3788 52.5583 62.6963 53.2655C62.1016 53.8834 61.8042 54.7046 61.8042 55.7307C61.8042 56.7568 62.1462 57.618 62.8303 58.2929C63.4728 58.9354 64.2601 59.2574 65.1892 59.2574C66.2553 59.2574 67.1181 58.8522 67.7745 58.0387C68.2798 57.4147 68.534 56.6135 68.534 55.6321C68.534 54.5089 68.1781 53.6538 67.4679 53.0699C66.7776 52.4921 66.0011 52.2024 65.1399 52.2024L65.1368 52.204Z" fill="white"/>
<path d="M73.1592 52.702C73.6029 51.8778 74.2531 51.4648 75.1082 51.4648C75.5396 51.4648 75.7537 51.6205 75.7537 51.9332C75.7537 52.0241 75.7198 52.1027 75.6505 52.1674C75.5827 52.2321 75.5026 52.2645 75.4148 52.2645C75.3871 52.2645 75.3085 52.2491 75.1791 52.2152C75.1036 52.2028 75.0219 52.1951 74.9325 52.1951C74.4195 52.1951 73.9819 52.4185 73.6198 52.8669C73.435 53.1011 73.3117 53.3815 73.2501 53.7097C73.1884 54.0378 73.1576 54.6048 73.1576 55.4106V59.1237C73.1576 59.3764 73.1268 59.5505 73.0652 59.6445C73.0036 59.7385 72.8942 59.7862 72.737 59.7862C72.5799 59.7862 72.4705 59.7385 72.4088 59.6445C72.3472 59.5505 72.3164 59.3764 72.3164 59.1237V52.303C72.3164 52.0503 72.3472 51.8762 72.4088 51.7822C72.4705 51.6882 72.5799 51.6405 72.737 51.6405C72.8942 51.6405 73.0036 51.6882 73.0652 51.7822C73.1268 51.8762 73.1576 52.0503 73.1576 52.303V52.702H73.1592Z" fill="white"/>
<path d="M84.7496 58.3242C84.4492 58.7525 84.1133 59.0868 83.7451 59.3272C83.041 59.7755 82.2614 59.9989 81.4063 59.9989C80.0998 59.9989 79.0367 59.5275 78.2155 58.5861C77.5453 57.8126 77.2109 56.842 77.2109 55.6726C77.2109 54.2428 77.6963 53.1427 78.6669 52.3693C79.4326 51.7653 80.3386 51.4634 81.3847 51.4634C82.7729 51.4634 83.8946 51.9934 84.7496 53.0518V45.8891C84.7496 45.6364 84.7789 45.4623 84.8375 45.3683C84.896 45.2743 85.0069 45.2266 85.1703 45.2266C85.3336 45.2266 85.4461 45.2743 85.5031 45.3683C85.5616 45.4623 85.5909 45.6364 85.5909 45.8891V59.1223C85.5909 59.3749 85.5601 59.549 85.4984 59.643C85.4368 59.737 85.3274 59.7848 85.1703 59.7848C85.0131 59.7848 84.8945 59.737 84.8375 59.643C84.7789 59.549 84.7496 59.3749 84.7496 59.1223V58.3226V58.3242ZM81.4063 52.2044C80.4634 52.2044 79.6483 52.5588 78.9658 53.266C78.3711 53.8838 78.0737 54.705 78.0737 55.7311C78.0737 56.7573 78.4158 57.6185 79.0999 58.2934C79.7423 58.9358 80.5296 59.2578 81.4587 59.2578C82.5249 59.2578 83.3877 58.8526 84.044 58.0391C84.5494 57.4151 84.8036 56.614 84.8036 55.6325C84.8036 54.5094 84.4477 53.6543 83.7374 53.0703C83.0472 52.4926 82.2706 52.2029 81.4094 52.2029L81.4063 52.2044Z" fill="white"/>
<path d="M95.1402 47.1484V59.1244C95.1402 59.3909 95.1125 59.5558 95.0585 59.622C94.9692 59.733 94.8459 59.7884 94.6888 59.7884C94.5039 59.7884 94.3806 59.7438 94.319 59.6513C94.2574 59.5604 94.2266 59.3848 94.2266 59.1244V47.1484C94.2266 46.8819 94.2543 46.717 94.3082 46.6508C94.3976 46.5398 94.5239 46.4844 94.6872 46.4844C94.8644 46.4844 94.9846 46.5306 95.0462 46.6215C95.1079 46.7124 95.1387 46.888 95.1387 47.1484H95.1402Z" fill="white"/>
<path d="M99.3662 52.9046C99.6328 52.5148 99.8901 52.2298 100.135 52.0464C100.648 51.6566 101.26 51.4609 101.972 51.4609C102.683 51.4609 103.264 51.6427 103.777 52.0063C104.139 52.2667 104.397 52.5949 104.546 52.9909C104.697 53.3868 104.771 53.9399 104.771 54.6471V59.1198C104.771 59.3725 104.74 59.5466 104.679 59.6406C104.617 59.7346 104.508 59.7823 104.35 59.7823C104.193 59.7823 104.084 59.7346 104.022 59.6406C103.961 59.5466 103.93 59.3725 103.93 59.1198V54.6471C103.93 53.8737 103.827 53.3221 103.622 52.9909C103.293 52.4655 102.708 52.202 101.868 52.202C100.945 52.202 100.261 52.5718 99.8161 53.3129C99.6451 53.5994 99.5264 53.903 99.4617 54.2234C99.397 54.5454 99.3647 54.9845 99.3647 55.5438V59.1198C99.3647 59.3725 99.3339 59.5466 99.2722 59.6406C99.2106 59.7346 99.1012 59.7823 98.9441 59.7823C98.7869 59.7823 98.6775 59.7346 98.6159 59.6406C98.5543 59.5466 98.5234 59.3725 98.5234 59.1198V52.2991C98.5234 52.0464 98.5543 51.8723 98.6159 51.7783C98.6775 51.6843 98.7869 51.6366 98.9441 51.6366C99.1012 51.6366 99.2106 51.6843 99.2722 51.7783C99.3339 51.8723 99.3647 52.0464 99.3647 52.2991V52.903L99.3662 52.9046Z" fill="white"/>
<path d="M114.742 58.3242C114.441 58.7525 114.106 59.0868 113.737 59.3272C113.033 59.7755 112.254 59.9989 111.398 59.9989C110.092 59.9989 109.029 59.5275 108.208 58.5861C107.537 57.8126 107.203 56.842 107.203 55.6726C107.203 54.2428 107.688 53.1427 108.659 52.3693C109.425 51.7653 110.331 51.4634 111.377 51.4634C112.765 51.4634 113.887 51.9934 114.742 53.0518V45.8891C114.742 45.6364 114.771 45.4623 114.83 45.3683C114.888 45.2743 114.999 45.2266 115.162 45.2266C115.326 45.2266 115.438 45.2743 115.495 45.3683C115.554 45.4623 115.583 45.6364 115.583 45.8891V59.1223C115.583 59.3749 115.552 59.549 115.491 59.643C115.429 59.737 115.32 59.7848 115.162 59.7848C115.005 59.7848 114.887 59.737 114.83 59.643C114.771 59.549 114.742 59.3749 114.742 59.1223V58.3226V58.3242ZM111.398 52.2044C110.456 52.2044 109.641 52.5588 108.958 53.266C108.363 53.8838 108.066 54.705 108.066 55.7311C108.066 56.7573 108.408 57.6185 109.092 58.2934C109.735 58.9358 110.522 59.2578 111.451 59.2578C112.517 59.2578 113.38 58.8526 114.036 58.0391C114.542 57.4151 114.796 56.614 114.796 55.6325C114.796 54.5094 114.44 53.6543 113.73 53.0703C113.039 52.4926 112.263 52.2029 111.402 52.2029L111.398 52.2044Z" fill="white"/>
<path d="M119.421 52.3012V56.4919C119.421 57.3424 119.516 57.9402 119.707 58.2853C119.865 58.578 120.123 58.8138 120.482 58.9925C120.841 59.1712 121.236 59.2606 121.667 59.2606C122.099 59.2606 122.482 59.1712 122.841 58.9925C123.2 58.8138 123.458 58.578 123.616 58.2853C123.807 57.9417 123.903 57.3439 123.903 56.4919V52.3012C123.903 52.0485 123.934 51.8744 123.995 51.7804C124.057 51.6864 124.166 51.6387 124.323 51.6387C124.481 51.6387 124.599 51.6864 124.656 51.7804C124.715 51.8744 124.744 52.0485 124.744 52.3012V56.7739C124.744 57.3455 124.699 57.7923 124.61 58.1143C124.521 58.4363 124.357 58.7306 124.117 58.9956C123.528 59.6642 122.712 59.9986 121.666 59.9986C120.62 59.9986 119.789 59.6642 119.194 58.9956C118.962 58.7352 118.802 58.444 118.712 58.1189C118.623 57.7938 118.578 57.3455 118.578 56.7739V52.3012C118.578 52.0485 118.609 51.8744 118.671 51.7804C118.732 51.6864 118.842 51.6387 118.999 51.6387C119.156 51.6387 119.265 51.6864 119.327 51.7804C119.389 51.8744 119.419 52.0485 119.419 52.3012H119.421Z" fill="white"/>
<path d="M127.656 57.69C127.765 57.69 127.845 57.7147 127.896 57.7625C127.947 57.8118 128.024 57.9335 128.127 58.1276C128.523 58.881 129.139 59.2585 129.973 59.2585C130.589 59.2585 131.081 59.0443 131.45 58.616C131.745 58.2724 131.891 57.8857 131.891 57.4559C131.891 57.026 131.772 56.7132 131.537 56.476C131.301 56.2387 130.871 56.0137 130.249 55.798C129.312 55.473 128.659 55.1448 128.289 54.8135C127.919 54.4823 127.734 54.0601 127.734 53.5471C127.734 52.8969 127.998 52.3715 128.525 51.9678C128.976 51.6304 129.481 51.4609 130.042 51.4609C130.494 51.4609 130.948 51.595 131.406 51.86C131.863 52.1265 132.093 52.3931 132.093 52.6596C132.093 52.7567 132.06 52.8414 131.996 52.9123C131.931 52.9832 131.857 53.0186 131.775 53.0186C131.694 53.0186 131.598 52.9662 131.489 52.863C131.044 52.4208 130.583 52.2005 130.104 52.2005C129.686 52.2005 129.333 52.3284 129.042 52.5857C128.751 52.843 128.606 53.1588 128.606 53.5363C128.606 53.8413 128.729 54.0986 128.976 54.3066C129.223 54.5146 129.657 54.7319 130.279 54.9599C131.087 55.2465 131.634 55.4899 131.92 55.6902C132.481 56.0939 132.762 56.6685 132.762 57.4143C132.762 58.2586 132.45 58.9211 131.828 59.4018C131.309 59.7977 130.692 59.9965 129.982 59.9965C129.011 59.9965 128.246 59.656 127.685 58.9735C127.377 58.5975 127.223 58.2817 127.223 58.0275C127.223 57.9366 127.266 57.8564 127.351 57.7886C127.435 57.7209 127.537 57.687 127.653 57.687L127.656 57.69Z" fill="white"/>
<path d="M135.84 52.3699V59.1229C135.84 59.3756 135.81 59.5497 135.748 59.6436C135.686 59.7376 135.577 59.7854 135.42 59.7854C135.263 59.7854 135.153 59.7376 135.092 59.6436C135.03 59.5497 134.999 59.3756 134.999 59.1229V52.3699H134.743C134.483 52.3699 134.304 52.3437 134.204 52.2914C134.106 52.239 134.055 52.145 134.055 52.0094C134.055 51.8738 134.104 51.7691 134.204 51.7167C134.303 51.6643 134.483 51.6381 134.743 51.6381H134.999V49.3871C134.999 49.1344 135.03 48.9603 135.092 48.8664C135.153 48.7724 135.263 48.7246 135.42 48.7246C135.577 48.7246 135.686 48.7724 135.748 48.8664C135.81 48.9603 135.84 49.1344 135.84 49.3871V51.6381H136.64C136.9 51.6381 137.079 51.6643 137.179 51.7167C137.278 51.7691 137.329 51.8661 137.329 52.0094C137.329 52.1527 137.279 52.2405 137.179 52.2914C137.081 52.3437 136.9 52.3699 136.64 52.3699H135.84Z" fill="white"/>
<path d="M139.843 52.702C140.287 51.8778 140.937 51.4648 141.792 51.4648C142.223 51.4648 142.437 51.6205 142.437 51.9332C142.437 52.0241 142.403 52.1027 142.334 52.1674C142.266 52.2321 142.186 52.2645 142.098 52.2645C142.071 52.2645 141.992 52.2491 141.863 52.2152C141.787 52.2028 141.705 52.1951 141.616 52.1951C141.103 52.1951 140.666 52.4185 140.303 52.8669C140.119 53.1011 139.995 53.3815 139.934 53.7097C139.872 54.0378 139.841 54.6048 139.841 55.4106V59.1237C139.841 59.3764 139.81 59.5505 139.749 59.6445C139.687 59.7385 139.578 59.7862 139.421 59.7862C139.263 59.7862 139.154 59.7385 139.092 59.6445C139.031 59.5505 139 59.3764 139 59.1237V52.303C139 52.0503 139.031 51.8762 139.092 51.7822C139.154 51.6882 139.263 51.6405 139.421 51.6405C139.578 51.6405 139.687 51.6882 139.749 51.7822C139.81 51.8762 139.841 52.0503 139.841 52.303V52.702H139.843Z" fill="white"/>
<path d="M144.868 48.1992C145.081 48.1992 145.26 48.2686 145.408 48.4088C145.554 48.549 145.628 48.7215 145.628 48.9295C145.628 49.1375 145.554 49.3039 145.408 49.4457C145.26 49.5889 145.084 49.6598 144.879 49.6598C144.674 49.6598 144.488 49.5889 144.341 49.4457C144.194 49.3024 144.121 49.1267 144.121 48.9203C144.121 48.7246 144.195 48.5567 144.341 48.4134C144.488 48.2701 144.665 48.1992 144.87 48.1992H144.868ZM145.3 52.3021V59.1229C145.3 59.3756 145.269 59.5497 145.207 59.6436C145.146 59.7376 145.036 59.7854 144.879 59.7854C144.722 59.7854 144.613 59.7376 144.551 59.6436C144.489 59.5497 144.459 59.3756 144.459 59.1229V52.3021C144.459 52.0495 144.489 51.8754 144.551 51.7814C144.613 51.6874 144.722 51.6396 144.879 51.6396C145.036 51.6396 145.146 51.6874 145.207 51.7814C145.269 51.8754 145.3 52.0495 145.3 52.3021Z" fill="white"/>
<path d="M148.643 55.8204C148.676 56.5738 148.834 57.1886 149.114 57.6616C149.401 58.1423 149.807 58.529 150.334 58.8217C150.853 59.1145 151.405 59.2609 151.986 59.2609C152.799 59.2609 153.52 59.0005 154.151 58.4813C154.308 58.358 154.523 58.0976 154.796 57.7017C154.886 57.5846 155.004 57.526 155.155 57.526C155.271 57.526 155.369 57.5645 155.448 57.6431C155.526 57.7217 155.567 57.8187 155.567 57.9358C155.567 58.0853 155.416 58.3287 155.115 58.6661C154.308 59.5567 153.252 60.0004 151.946 60.0004C150.639 60.0004 149.675 59.5906 148.889 58.7724C148.116 57.9605 147.73 56.9575 147.73 55.7619C147.73 54.5663 148.089 53.6342 148.807 52.8099C149.593 51.9132 150.63 51.4648 151.915 51.4648C152.913 51.4648 153.769 51.7576 154.479 52.3415C155.177 52.907 155.642 53.6542 155.873 54.5832C155.949 54.9022 155.986 55.1579 155.986 55.3536C155.986 55.5354 155.936 55.6587 155.836 55.7234C155.738 55.7881 155.551 55.8204 155.277 55.8204H148.641H148.643ZM155.043 55.0609C154.939 54.4569 154.735 53.9469 154.426 53.5309C154.126 53.1211 153.753 52.8006 153.308 52.5665C152.85 52.3261 152.38 52.2059 151.903 52.2059C151.103 52.2059 150.402 52.474 149.8 53.0102C149.197 53.5463 148.832 54.2304 148.703 55.0609H155.041H155.043Z" fill="white"/>
<path d="M158.367 57.69C158.476 57.69 158.556 57.7147 158.607 57.7625C158.658 57.8118 158.735 57.9335 158.838 58.1276C159.234 58.881 159.85 59.2585 160.684 59.2585C161.3 59.2585 161.792 59.0443 162.161 58.616C162.456 58.2724 162.602 57.8857 162.602 57.4559C162.602 57.026 162.483 56.7132 162.248 56.476C162.012 56.2387 161.582 56.0137 160.96 55.798C160.023 55.473 159.37 55.1448 159 54.8135C158.63 54.4823 158.445 54.0601 158.445 53.5471C158.445 52.8969 158.709 52.3715 159.236 51.9678C159.687 51.6304 160.192 51.4609 160.753 51.4609C161.205 51.4609 161.659 51.595 162.117 51.86C162.574 52.1265 162.804 52.3931 162.804 52.6596C162.804 52.7567 162.771 52.8414 162.707 52.9123C162.642 52.9832 162.568 53.0186 162.486 53.0186C162.405 53.0186 162.309 52.9662 162.2 52.863C161.755 52.4208 161.294 52.2005 160.815 52.2005C160.397 52.2005 160.044 52.3284 159.753 52.5857C159.462 52.843 159.317 53.1588 159.317 53.5363C159.317 53.8413 159.44 54.0986 159.687 54.3066C159.933 54.5146 160.368 54.7319 160.99 54.9599C161.798 55.2465 162.345 55.4899 162.631 55.6902C163.192 56.0939 163.472 56.6685 163.472 57.4143C163.472 58.2586 163.161 58.9211 162.539 59.4018C162.02 59.7977 161.403 59.9965 160.693 59.9965C159.722 59.9965 158.957 59.656 158.396 58.9735C158.088 58.5975 157.934 58.2817 157.934 58.0275C157.934 57.9366 157.977 57.8564 158.061 57.7886C158.146 57.7209 158.248 57.687 158.363 57.687L158.367 57.69Z" fill="white"/>
<path d="M172.183 58.9849H175.024C175.291 58.9849 175.474 59.0142 175.573 59.0727C175.671 59.1313 175.722 59.2345 175.722 59.3839C175.722 59.5334 175.673 59.6366 175.573 59.6952C175.474 59.7537 175.291 59.783 175.024 59.783H171.967C171.659 59.783 171.467 59.746 171.388 59.6705C171.31 59.5966 171.27 59.4117 171.27 59.1205V47.1445C171.27 46.878 171.297 46.7131 171.351 46.6469C171.441 46.5359 171.567 46.4805 171.73 46.4805C171.907 46.4805 172.028 46.5267 172.089 46.6176C172.151 46.7085 172.182 46.8841 172.182 47.1445V58.9849H172.183Z" fill="white"/>
<path d="M178.43 52.3699V59.1229C178.43 59.3756 178.399 59.5497 178.338 59.6436C178.276 59.7376 178.167 59.7854 178.01 59.7854C177.852 59.7854 177.743 59.7376 177.681 59.6436C177.62 59.5497 177.589 59.3756 177.589 59.1229V52.3699H177.333C177.073 52.3699 176.894 52.3437 176.794 52.2914C176.695 52.239 176.645 52.145 176.645 52.0094C176.645 51.8738 176.694 51.7691 176.794 51.7167C176.893 51.6643 177.073 51.6381 177.333 51.6381H177.589V49.3871C177.589 49.1344 177.62 48.9603 177.681 48.8664C177.743 48.7724 177.852 48.7246 178.01 48.7246C178.167 48.7246 178.276 48.7724 178.338 48.8664C178.399 48.9603 178.43 49.1344 178.43 49.3871V51.6381H179.23C179.49 51.6381 179.669 51.6643 179.769 51.7167C179.868 51.7691 179.919 51.8661 179.919 52.0094C179.919 52.1527 179.869 52.2405 179.769 52.2914C179.67 52.3437 179.49 52.3699 179.23 52.3699H178.43Z" fill="white"/>
<path d="M188.566 58.3242C188.266 58.7525 187.93 59.0868 187.562 59.3272C186.857 59.7755 186.078 59.9989 185.223 59.9989C183.916 59.9989 182.853 59.5275 182.032 58.5861C181.362 57.8126 181.027 56.842 181.027 55.6726C181.027 54.2428 181.513 53.1427 182.483 52.3693C183.249 51.7653 184.155 51.4634 185.201 51.4634C186.589 51.4634 187.711 51.9934 188.566 53.0518V45.8891C188.566 45.6364 188.595 45.4623 188.654 45.3683C188.712 45.2743 188.823 45.2266 188.987 45.2266C189.15 45.2266 189.262 45.2743 189.319 45.3683C189.378 45.4623 189.407 45.6364 189.407 45.8891V59.1223C189.407 59.3749 189.376 59.549 189.315 59.643C189.253 59.737 189.144 59.7848 188.987 59.7848C188.83 59.7848 188.711 59.737 188.654 59.643C188.595 59.549 188.566 59.3749 188.566 59.1223V58.3226V58.3242ZM185.223 52.2044C184.278 52.2044 183.465 52.5588 182.781 53.266C182.186 53.8838 181.889 54.705 181.889 55.7311C181.889 56.7573 182.231 57.6185 182.915 58.2934C183.557 58.9358 184.345 59.2578 185.274 59.2578C186.34 59.2578 187.203 58.8526 187.859 58.0391C188.364 57.4151 188.618 56.614 188.618 55.6325C188.618 54.5094 188.263 53.6543 187.552 53.0703C186.862 52.4926 186.086 52.2029 185.224 52.2029L185.223 52.2044Z" fill="white"/>
<path d="M193.038 58.4688C193.249 58.4688 193.431 58.5381 193.582 58.6783C193.733 58.8185 193.809 58.988 193.809 59.1898C193.809 59.3916 193.733 59.5642 193.582 59.7059C193.431 59.8492 193.251 59.9201 193.038 59.9201C192.826 59.9201 192.645 59.8492 192.494 59.7059C192.343 59.5627 192.27 59.3916 192.27 59.1898C192.27 58.988 192.345 58.8262 192.494 58.6829C192.645 58.5396 192.826 58.4688 193.038 58.4688Z" fill="white"/>
</g>
<defs>
<clipPath id="clip0_5004_4357">
<rect width="193.849" height="60" fill="white"/>
</clipPath>
</defs>
</svg>
