<svg width="162" height="50" viewBox="0 0 162 50" fill="none" xmlns="http://www.w3.org/2000/svg">
<g clip-path="url(#clip0_5004_4586)">
<path d="M18.5194 5.25098V10.3019H5.05097V13.6684H18.5194V18.7194H5.05097V28.82H0V5.25098H18.5194Z" fill="white"/>
<path d="M41.5145 5.25195V10.3029H28.0461V13.6694H39.8313V18.7204H28.0461V23.7713H41.5145V28.8223H22.9951V5.25195H41.5145Z" fill="white"/>
<path d="M66.1919 13.6694C66.1919 18.5855 64.0374 21.346 59.7273 21.952L66.5963 28.821H59.4577L51.0402 20.4036V28.821H45.9893V5.25195H57.7744C63.3865 5.25195 66.1919 8.05734 66.1919 13.6694ZM57.7744 17.0358C60.0187 17.0358 61.1409 15.9137 61.1409 13.6694C61.1409 11.4251 60.0187 10.3029 57.7744 10.3029H51.0402V17.0371H57.7744V17.0358Z" fill="white"/>
<path d="M80.7698 21.6464L86.948 5.25195H92.4702L80.7698 34.071L69.0693 5.25195H74.5915L80.7698 21.6464Z" fill="white"/>
<path d="M113.868 5.25195V10.3029H100.4V13.6694H112.185V18.7204H100.4V23.7713H113.868V28.8223H95.3486V5.25195H113.868Z" fill="white"/>
<path d="M123.394 15.47V28.8203H118.343V0L133.494 18.6015V5.25127H138.545V34.0703L123.394 15.47Z" fill="white"/>
<path d="M161.54 5.25195V10.3029H154.806V28.8223H149.755V10.3029H143.021V5.25195H161.54Z" fill="white"/>
<path d="M6.6434 48.6111L11.1051 39.1177C11.2245 38.852 11.3618 38.7197 11.5159 38.7197C11.6417 38.7197 11.729 38.7544 11.7804 38.825C11.8318 38.8956 11.869 39.033 11.8921 39.2397L13.0027 49.2274C13.0143 49.3417 13.0194 49.4277 13.0194 49.4867C13.0194 49.7089 12.891 49.8193 12.6342 49.8193C12.4968 49.8193 12.4018 49.7859 12.3479 49.7179C12.294 49.6498 12.2555 49.5137 12.2323 49.3083L11.2411 40.4081L7.06068 49.3725C6.96952 49.5625 6.89891 49.6845 6.84755 49.7384C6.79619 49.7923 6.72814 49.8193 6.64212 49.8193C6.55096 49.8193 6.48163 49.7923 6.43284 49.7384C6.38405 49.6845 6.31472 49.5625 6.22356 49.3725L2.06107 40.4081L1.10326 49.3006C1.08014 49.5111 1.04163 49.6511 0.987702 49.7191C0.933777 49.7872 0.838766 49.8206 0.701386 49.8206C0.45102 49.8206 0.325195 49.7063 0.325195 49.479C0.325195 49.4521 0.334183 49.3712 0.350874 49.2351L1.44478 39.2474C1.46147 39.0523 1.49742 38.9187 1.55135 38.8455C1.60527 38.7724 1.69258 38.7364 1.81198 38.7364C1.97119 38.7364 2.11114 38.8661 2.23054 39.1267L6.64084 48.6111H6.6434Z" fill="white"/>
<path d="M16.4738 43.5843V47.0766C16.4738 47.7853 16.5534 48.2835 16.7126 48.5711C16.8436 48.815 17.0593 49.0115 17.3584 49.1604C17.6576 49.3094 17.9863 49.3838 18.3458 49.3838C18.7053 49.3838 19.025 49.3094 19.3241 49.1604C19.6233 49.0115 19.8377 48.815 19.9699 48.5711C20.1291 48.2848 20.2087 47.7866 20.2087 47.0766V43.5843C20.2087 43.3737 20.2344 43.2287 20.2858 43.1503C20.3371 43.072 20.4283 43.0322 20.5593 43.0322C20.6902 43.0322 20.7891 43.072 20.8366 43.1503C20.8854 43.2287 20.9098 43.3737 20.9098 43.5843V47.3116C20.9098 47.7879 20.8725 48.1602 20.7981 48.4286C20.7236 48.6969 20.5875 48.9421 20.3872 49.163C19.8967 49.7202 19.2163 49.9988 18.3445 49.9988C17.4727 49.9988 16.7807 49.7202 16.2851 49.163C16.0912 48.946 15.9577 48.7033 15.8832 48.4324C15.8087 48.1615 15.7715 47.7879 15.7715 47.3116V43.5843C15.7715 43.3737 15.7972 43.2287 15.8485 43.1503C15.8999 43.072 15.991 43.0322 16.122 43.0322C16.253 43.0322 16.3441 43.072 16.3955 43.1503C16.4468 43.2287 16.4725 43.3737 16.4725 43.5843H16.4738Z" fill="white"/>
<path d="M24.1063 38.2496V49.2695C24.1063 49.4801 24.0806 49.6252 24.0293 49.7035C23.9779 49.7818 23.8867 49.8216 23.7558 49.8216C23.6248 49.8216 23.5337 49.7818 23.4823 49.7035C23.431 49.6252 23.4053 49.4801 23.4053 49.2695V38.2496C23.4053 38.0326 23.4297 37.8849 23.4785 37.8066C23.5272 37.7283 23.6197 37.6885 23.7558 37.6885C23.8919 37.6885 23.9856 37.7283 24.0331 37.8066C24.0819 37.8849 24.1063 38.0326 24.1063 38.2496Z" fill="white"/>
<path d="M27.3738 43.6423V49.2697C27.3738 49.4803 27.3481 49.6254 27.2968 49.7037C27.2454 49.782 27.1543 49.8218 27.0233 49.8218C26.8923 49.8218 26.8012 49.782 26.7498 49.7037C26.6985 49.6254 26.6728 49.4803 26.6728 49.2697V43.6423H26.4597C26.2427 43.6423 26.0937 43.6204 26.0103 43.5768C25.9281 43.5331 25.8857 43.4548 25.8857 43.3418C25.8857 43.2288 25.9268 43.1415 26.0103 43.0979C26.0925 43.0542 26.2427 43.0324 26.4597 43.0324H26.6728V41.1566C26.6728 40.946 26.6985 40.8009 26.7498 40.7226C26.8012 40.6443 26.8923 40.6045 27.0233 40.6045C27.1543 40.6045 27.2454 40.6443 27.2968 40.7226C27.3481 40.8009 27.3738 40.946 27.3738 41.1566V43.0324H28.0402C28.2572 43.0324 28.4061 43.0542 28.4895 43.0979C28.5717 43.1415 28.6141 43.2224 28.6141 43.3418C28.6141 43.4612 28.573 43.5344 28.4895 43.5768C28.4074 43.6204 28.2572 43.6423 28.0402 43.6423H27.3738Z" fill="white"/>
<path d="M30.345 40.166C30.5222 40.166 30.6711 40.2238 30.7931 40.3406C30.9151 40.4575 30.9767 40.6013 30.9767 40.7746C30.9767 40.9479 30.9151 41.0866 30.7931 41.2047C30.6711 41.3241 30.5235 41.3832 30.3527 41.3832C30.1819 41.3832 30.0266 41.3241 29.9033 41.2047C29.7801 41.0853 29.7197 40.9389 29.7197 40.7669C29.7197 40.6038 29.7814 40.4639 29.9033 40.3445C30.0253 40.2251 30.173 40.166 30.3437 40.166H30.345ZM30.7045 43.5851V49.2691C30.7045 49.4796 30.6788 49.6247 30.6275 49.703C30.5761 49.7814 30.4849 49.8212 30.354 49.8212C30.223 49.8212 30.1319 49.7814 30.0805 49.703C30.0292 49.6247 30.0035 49.4796 30.0035 49.2691V43.5851C30.0035 43.3746 30.0292 43.2295 30.0805 43.1511C30.1319 43.0728 30.223 43.033 30.354 43.033C30.4849 43.033 30.5761 43.0728 30.6275 43.1511C30.6788 43.2295 30.7045 43.3746 30.7045 43.5851Z" fill="white"/>
<path d="M33.9041 44.2095C34.6103 43.3275 35.545 42.8858 36.7082 42.8858C37.7392 42.8858 38.5854 43.2184 39.2466 43.8847C39.8731 44.5177 40.1864 45.3548 40.1864 46.3935C40.1864 47.5195 39.8192 48.4183 39.0835 49.0898C38.4223 49.6958 37.6275 49.9988 36.6993 49.9988C36.1009 49.9988 35.5643 49.8794 35.0879 49.6418C34.6116 49.4043 34.2174 49.0577 33.9041 48.6019V49.2682C33.9041 49.4736 33.8785 49.6174 33.8271 49.6983C33.7758 49.7792 33.6846 49.8203 33.5536 49.8203C33.4227 49.8203 33.3315 49.7805 33.2802 49.7022C33.2288 49.6239 33.2031 49.4788 33.2031 49.2682V38.2406C33.2031 38.03 33.2275 37.8849 33.2763 37.8066C33.3251 37.7283 33.4175 37.6885 33.5536 37.6885C33.6897 37.6885 33.7835 37.7283 33.831 37.8066C33.8798 37.8849 33.9041 38.03 33.9041 38.2406V44.2095ZM36.6736 43.5034C35.8532 43.5034 35.1354 43.8154 34.5192 44.4368C34.08 44.881 33.8605 45.5217 33.8605 46.3614C33.8605 47.3256 34.1545 48.0806 34.7413 48.6275C35.2715 49.1308 35.9122 49.3825 36.6646 49.3825C37.5595 49.3825 38.2823 49.0358 38.8357 48.3425C39.2517 47.8174 39.4597 47.1549 39.4597 46.3524C39.4597 45.4318 39.1374 44.7039 38.4942 44.1685C37.9588 43.7242 37.3515 43.5021 36.6736 43.5021V43.5034Z" fill="white"/>
<path d="M45.4938 42.886C46.5543 42.886 47.4569 43.252 48.2029 43.9825C48.8808 44.6437 49.2197 45.4629 49.2197 46.4425C49.2197 47.5685 48.7832 48.475 47.9114 49.1632C47.2052 49.7204 46.3874 49.999 45.4578 49.999C44.7799 49.999 44.1379 49.8257 43.5345 49.479C42.9246 49.1324 42.4624 48.6663 42.1491 48.0821C41.8757 47.5788 41.7383 47.0126 41.7383 46.3848C41.7383 45.4102 42.1196 44.5744 42.8835 43.876C43.6128 43.216 44.482 42.8848 45.4912 42.8848L45.4938 42.886ZM45.4257 43.5036C44.5141 43.5036 43.7618 43.8477 43.1686 44.5346C42.7012 45.0816 42.4676 45.7338 42.4676 46.4913C42.4676 47.2976 42.7693 47.9884 43.374 48.5623C43.9441 49.1092 44.6361 49.3827 45.4514 49.3827C46.4092 49.3827 47.1975 49.0309 47.819 48.3273C48.2696 47.8073 48.4943 47.1795 48.4943 46.4438C48.4943 45.5836 48.19 44.8761 47.5802 44.324C46.9754 43.7771 46.2577 43.5036 45.4257 43.5036Z" fill="white"/>
<path d="M57.0664 48.6031C56.8161 48.96 56.5362 49.2386 56.2293 49.4389C55.6426 49.8125 54.9929 49.9987 54.2803 49.9987C53.1915 49.9987 52.3056 49.6058 51.6213 48.8213C51.0628 48.1768 50.7842 47.3679 50.7842 46.3934C50.7842 45.2019 51.1886 44.2852 51.9975 43.6407C52.6356 43.1374 53.3906 42.8857 54.2623 42.8857C55.4192 42.8857 56.3539 43.3274 57.0664 44.2095V43.5842C57.0664 43.3736 57.0921 43.2286 57.1435 43.1502C57.1948 43.0719 57.286 43.0321 57.417 43.0321C57.5479 43.0321 57.6391 43.0719 57.6904 43.1502C57.7418 43.2286 57.7675 43.3736 57.7675 43.5842V49.2682C57.7675 49.4787 57.7418 49.6238 57.6904 49.7021C57.6391 49.7804 57.5479 49.8202 57.417 49.8202C57.286 49.8202 57.1871 49.7804 57.1396 49.7021C57.0908 49.6238 57.0664 49.4787 57.0664 49.2682V48.6018V48.6031ZM54.2803 43.5033C53.4946 43.5033 52.8154 43.7986 52.2466 44.3879C51.751 44.9028 51.5032 45.5871 51.5032 46.4422C51.5032 47.2973 51.7882 48.015 52.3583 48.5774C52.8937 49.1128 53.5498 49.3811 54.324 49.3811C55.2124 49.3811 55.9314 49.0435 56.4784 48.3655C56.8995 47.8456 57.1114 47.1779 57.1114 46.3601C57.1114 45.4241 56.8148 44.7115 56.2229 44.2249C55.6477 43.7434 55.0006 43.502 54.2829 43.502L54.2803 43.5033Z" fill="white"/>
<path d="M60.966 43.9177C61.3358 43.2308 61.8776 42.8867 62.5901 42.8867C62.9496 42.8867 63.1281 43.0164 63.1281 43.277C63.1281 43.3528 63.0999 43.4183 63.0421 43.4722C62.9856 43.5261 62.9188 43.5531 62.8457 43.5531C62.8225 43.5531 62.7571 43.5402 62.6492 43.512C62.5863 43.5017 62.5183 43.4953 62.4438 43.4953C62.0162 43.4953 61.6516 43.6815 61.3499 44.0551C61.1958 44.2503 61.0931 44.4839 61.0417 44.7574C60.9904 45.0309 60.9647 45.5034 60.9647 46.1749V49.2691C60.9647 49.4797 60.939 49.6248 60.8877 49.7031C60.8363 49.7814 60.7451 49.8212 60.6142 49.8212C60.4832 49.8212 60.3921 49.7814 60.3407 49.7031C60.2894 49.6248 60.2637 49.4797 60.2637 49.2691V43.5852C60.2637 43.3746 60.2894 43.2295 60.3407 43.1512C60.3921 43.0729 60.4832 43.0331 60.6142 43.0331C60.7451 43.0331 60.8363 43.0729 60.8877 43.1512C60.939 43.2295 60.9647 43.3746 60.9647 43.5852V43.9177H60.966Z" fill="white"/>
<path d="M70.625 48.6031C70.3747 48.9601 70.0948 49.2387 69.7879 49.439C69.2012 49.8126 68.5515 49.9988 67.8389 49.9988C66.7501 49.9988 65.8642 49.6059 65.1799 48.8214C64.6214 48.1769 64.3428 47.368 64.3428 46.3935C64.3428 45.202 64.7472 44.2853 65.5561 43.6408C66.1942 43.1375 66.9491 42.8858 67.8209 42.8858C68.9777 42.8858 69.9125 43.3275 70.625 44.2095V38.2406C70.625 38.03 70.6494 37.8849 70.6982 37.8066C70.747 37.7283 70.8394 37.6885 70.9755 37.6885C71.1116 37.6885 71.2054 37.7283 71.2529 37.8066C71.3017 37.8849 71.3261 38.03 71.3261 38.2406V49.2682C71.3261 49.4788 71.3004 49.6239 71.249 49.7022C71.1977 49.7805 71.1065 49.8203 70.9755 49.8203C70.8446 49.8203 70.7457 49.7805 70.6982 49.7022C70.6494 49.6239 70.625 49.4788 70.625 49.2682V48.6019V48.6031ZM67.8389 43.5034C67.0531 43.5034 66.3739 43.7987 65.8052 44.388C65.3096 44.9029 65.0618 45.5872 65.0618 46.4423C65.0618 47.2974 65.3468 48.0151 65.9169 48.5775C66.4523 49.1129 67.1084 49.3812 67.8826 49.3812C68.771 49.3812 69.49 49.0435 70.037 48.3656C70.4581 47.8456 70.67 47.178 70.67 46.3601C70.67 45.4241 70.3734 44.7116 69.7815 44.225C69.2063 43.7435 68.5592 43.5021 67.8415 43.5021L67.8389 43.5034Z" fill="white"/>
<path d="M79.2838 39.2897V49.2697C79.2838 49.4918 79.2607 49.6292 79.2158 49.6844C79.1413 49.7768 79.0386 49.823 78.9076 49.823C78.7536 49.823 78.6509 49.7858 78.5995 49.7088C78.5481 49.633 78.5225 49.4867 78.5225 49.2697V39.2897C78.5225 39.0676 78.5456 38.9302 78.5905 38.875C78.665 38.7825 78.7703 38.7363 78.9064 38.7363C79.054 38.7363 79.1542 38.7748 79.2055 38.8506C79.2569 38.9263 79.2825 39.0727 79.2825 39.2897H79.2838Z" fill="white"/>
<path d="M82.8049 44.0878C83.027 43.763 83.2414 43.5254 83.4455 43.3727C83.8731 43.0478 84.3828 42.8848 84.976 42.8848C85.5691 42.8848 86.0532 43.0363 86.4807 43.3393C86.7825 43.5563 86.9969 43.8297 87.1214 44.1597C87.2472 44.4897 87.3089 44.9506 87.3089 45.5399V49.2672C87.3089 49.4777 87.2832 49.6228 87.2318 49.7011C87.1805 49.7795 87.0893 49.8193 86.9584 49.8193C86.8274 49.8193 86.7362 49.7795 86.6849 49.7011C86.6335 49.6228 86.6078 49.4777 86.6078 49.2672V45.5399C86.6078 44.8954 86.5218 44.4357 86.3511 44.1597C86.0776 43.7219 85.5897 43.5023 84.8899 43.5023C84.1209 43.5023 83.5508 43.8105 83.1798 44.428C83.0372 44.6669 82.9384 44.9198 82.8845 45.1868C82.8305 45.4552 82.8036 45.8211 82.8036 46.2872V49.2672C82.8036 49.4777 82.7779 49.6228 82.7265 49.7011C82.6752 49.7795 82.584 49.8193 82.4531 49.8193C82.3221 49.8193 82.2309 49.7795 82.1796 49.7011C82.1282 49.6228 82.1025 49.4777 82.1025 49.2672V43.5832C82.1025 43.3727 82.1282 43.2276 82.1796 43.1493C82.2309 43.0709 82.3221 43.0311 82.4531 43.0311C82.584 43.0311 82.6752 43.0709 82.7265 43.1493C82.7779 43.2276 82.8036 43.3727 82.8036 43.5832V44.0865L82.8049 44.0878Z" fill="white"/>
<path d="M95.6182 48.6031C95.3678 48.9601 95.0879 49.2387 94.7811 49.439C94.1943 49.8126 93.5447 49.9988 92.8321 49.9988C91.7433 49.9988 90.8574 49.6059 90.1731 48.8214C89.6146 48.1769 89.3359 47.368 89.3359 46.3935C89.3359 45.202 89.7404 44.2853 90.5493 43.6408C91.1874 43.1375 91.9423 42.8858 92.8141 42.8858C93.9709 42.8858 94.9056 43.3275 95.6182 44.2095V38.2406C95.6182 38.03 95.6426 37.8849 95.6914 37.8066C95.7402 37.7283 95.8326 37.6885 95.9687 37.6885C96.1048 37.6885 96.1985 37.7283 96.246 37.8066C96.2948 37.8849 96.3192 38.03 96.3192 38.2406V49.2682C96.3192 49.4788 96.2935 49.6239 96.2422 49.7022C96.1908 49.7805 96.0997 49.8203 95.9687 49.8203C95.8377 49.8203 95.7389 49.7805 95.6914 49.7022C95.6426 49.6239 95.6182 49.4788 95.6182 49.2682V48.6019V48.6031ZM92.8321 43.5034C92.0463 43.5034 91.3671 43.7987 90.7983 44.388C90.3027 44.9029 90.0549 45.5872 90.0549 46.4423C90.0549 47.2974 90.34 48.0151 90.91 48.5775C91.4454 49.1129 92.1015 49.3812 92.8757 49.3812C93.7642 49.3812 94.4832 49.0435 95.0302 48.3656C95.4513 47.8456 95.6631 47.178 95.6631 46.3601C95.6631 45.4241 95.3665 44.7116 94.7747 44.225C94.1995 43.7435 93.5524 43.5021 92.8346 43.5021L92.8321 43.5034Z" fill="white"/>
<path d="M99.5168 43.5843V47.0766C99.5168 47.7853 99.5964 48.2835 99.7556 48.5711C99.8865 48.815 100.102 49.0115 100.401 49.1604C100.701 49.3094 101.029 49.3838 101.389 49.3838C101.748 49.3838 102.068 49.3094 102.367 49.1604C102.666 49.0115 102.881 48.815 103.013 48.5711C103.172 48.2848 103.252 47.7866 103.252 47.0766V43.5843C103.252 43.3737 103.277 43.2287 103.329 43.1503C103.38 43.072 103.471 43.0322 103.602 43.0322C103.733 43.0322 103.832 43.072 103.88 43.1503C103.928 43.2287 103.953 43.3737 103.953 43.5843V47.3116C103.953 47.7879 103.916 48.1602 103.841 48.4286C103.767 48.6969 103.63 48.9421 103.43 49.163C102.94 49.7202 102.259 49.9988 101.387 49.9988C100.516 49.9988 99.8236 49.7202 99.328 49.163C99.1342 48.946 99.0006 48.7033 98.9262 48.4324C98.8517 48.1615 98.8145 47.7879 98.8145 47.3116V43.5843C98.8145 43.3737 98.8401 43.2287 98.8915 43.1503C98.9428 43.072 99.034 43.0322 99.165 43.0322C99.2959 43.0322 99.3871 43.072 99.4384 43.1503C99.4898 43.2287 99.5155 43.3737 99.5155 43.5843H99.5168Z" fill="white"/>
<path d="M106.379 48.0757C106.47 48.0757 106.537 48.0962 106.58 48.136C106.622 48.1771 106.686 48.2785 106.772 48.4403C107.102 49.0682 107.616 49.3827 108.31 49.3827C108.824 49.3827 109.234 49.2043 109.542 48.8473C109.787 48.561 109.909 48.2387 109.909 47.8805C109.909 47.5223 109.81 47.2617 109.614 47.0639C109.417 46.8662 109.059 46.6788 108.54 46.499C107.76 46.2281 107.215 45.9546 106.907 45.6786C106.599 45.4025 106.445 45.0507 106.445 44.6232C106.445 44.0814 106.664 43.6436 107.103 43.3072C107.48 43.026 107.901 42.8848 108.368 42.8848C108.744 42.8848 109.123 42.9965 109.504 43.2173C109.886 43.4394 110.077 43.6615 110.077 43.8837C110.077 43.9645 110.05 44.0352 109.996 44.0942C109.942 44.1533 109.881 44.1828 109.813 44.1828C109.745 44.1828 109.665 44.1392 109.574 44.0531C109.203 43.6846 108.819 43.501 108.42 43.501C108.072 43.501 107.778 43.6076 107.535 43.822C107.292 44.0364 107.172 44.2997 107.172 44.6142C107.172 44.8684 107.274 45.0829 107.48 45.2562C107.685 45.4295 108.047 45.6105 108.566 45.8006C109.239 46.0394 109.694 46.2422 109.933 46.4091C110.401 46.7455 110.634 47.2244 110.634 47.8459C110.634 48.5495 110.375 49.1015 109.856 49.5021C109.424 49.8321 108.91 49.9977 108.318 49.9977C107.509 49.9977 106.871 49.714 106.404 49.1452C106.147 48.8319 106.019 48.5687 106.019 48.3569C106.019 48.2811 106.055 48.2143 106.125 48.1579C106.196 48.1014 106.28 48.0731 106.377 48.0731L106.379 48.0757Z" fill="white"/>
<path d="M113.2 43.6423V49.2697C113.2 49.4803 113.174 49.6254 113.123 49.7037C113.072 49.782 112.98 49.8218 112.849 49.8218C112.719 49.8218 112.627 49.782 112.576 49.7037C112.525 49.6254 112.499 49.4803 112.499 49.2697V43.6423H112.286C112.069 43.6423 111.92 43.6204 111.836 43.5768C111.754 43.5331 111.712 43.4548 111.712 43.3418C111.712 43.2288 111.753 43.1415 111.836 43.0979C111.919 43.0542 112.069 43.0324 112.286 43.0324H112.499V41.1566C112.499 40.946 112.525 40.8009 112.576 40.7226C112.627 40.6443 112.719 40.6045 112.849 40.6045C112.98 40.6045 113.072 40.6443 113.123 40.7226C113.174 40.8009 113.2 40.946 113.2 41.1566V43.0324H113.866C114.083 43.0324 114.232 43.0542 114.316 43.0979C114.398 43.1415 114.44 43.2224 114.44 43.3418C114.44 43.4612 114.399 43.5344 114.316 43.5768C114.234 43.6204 114.083 43.6423 113.866 43.6423H113.2Z" fill="white"/>
<path d="M116.535 43.9177C116.905 43.2308 117.447 42.8867 118.159 42.8867C118.519 42.8867 118.697 43.0164 118.697 43.277C118.697 43.3528 118.669 43.4183 118.611 43.4722C118.555 43.5261 118.488 43.5531 118.415 43.5531C118.392 43.5531 118.326 43.5402 118.219 43.512C118.156 43.5017 118.088 43.4953 118.013 43.4953C117.586 43.4953 117.221 43.6815 116.919 44.0551C116.765 44.2503 116.662 44.4839 116.611 44.7574C116.56 45.0309 116.534 45.5034 116.534 46.1749V49.2691C116.534 49.4797 116.508 49.6248 116.457 49.7031C116.406 49.7814 116.314 49.8212 116.184 49.8212C116.053 49.8212 115.961 49.7814 115.91 49.7031C115.859 49.6248 115.833 49.4797 115.833 49.2691V43.5852C115.833 43.3746 115.859 43.2295 115.91 43.1512C115.961 43.0729 116.053 43.0331 116.184 43.0331C116.314 43.0331 116.406 43.0729 116.457 43.1512C116.508 43.2295 116.534 43.3746 116.534 43.5852V43.9177H116.535Z" fill="white"/>
<path d="M120.723 40.166C120.9 40.166 121.049 40.2238 121.173 40.3406C121.295 40.4575 121.356 40.6013 121.356 40.7746C121.356 40.9479 121.295 41.0866 121.173 41.2047C121.049 41.3241 120.903 41.3832 120.732 41.3832C120.562 41.3832 120.406 41.3241 120.284 41.2047C120.161 41.0853 120.101 40.9389 120.101 40.7669C120.101 40.6038 120.162 40.4639 120.284 40.3445C120.406 40.2251 120.554 40.166 120.725 40.166H120.723ZM121.083 43.5851V49.2691C121.083 49.4796 121.057 49.6247 121.006 49.703C120.954 49.7814 120.863 49.8212 120.732 49.8212C120.601 49.8212 120.51 49.7814 120.459 49.703C120.407 49.6247 120.382 49.4796 120.382 49.2691V43.5851C120.382 43.3746 120.407 43.2295 120.459 43.1511C120.51 43.0728 120.601 43.033 120.732 43.033C120.863 43.033 120.954 43.0728 121.006 43.1511C121.057 43.2295 121.083 43.3746 121.083 43.5851Z" fill="white"/>
<path d="M123.868 46.5164C123.897 47.1442 124.028 47.6565 124.261 48.0507C124.5 48.4513 124.839 48.7735 125.278 49.0175C125.711 49.2614 126.171 49.3834 126.655 49.3834C127.333 49.3834 127.933 49.1664 128.459 48.7337C128.589 48.631 128.769 48.414 128.996 48.0841C129.071 47.9865 129.17 47.9377 129.296 47.9377C129.392 47.9377 129.474 47.9698 129.54 48.0353C129.605 48.1008 129.638 48.1816 129.638 48.2792C129.638 48.4038 129.513 48.6066 129.262 48.8878C128.589 49.6299 127.71 49.9997 126.621 49.9997C125.532 49.9997 124.729 49.6582 124.074 48.9764C123.429 48.2998 123.108 47.4639 123.108 46.4676C123.108 45.4713 123.408 44.6945 124.006 44.0076C124.661 43.2603 125.525 42.8867 126.596 42.8867C127.428 42.8867 128.14 43.1307 128.732 43.6173C129.314 44.0885 129.701 44.7112 129.894 45.4854C129.957 45.7512 129.988 45.9643 129.988 46.1274C129.988 46.2789 129.947 46.3816 129.863 46.4355C129.781 46.4894 129.626 46.5164 129.397 46.5164H123.867H123.868ZM129.202 45.8834C129.116 45.3801 128.945 44.9551 128.688 44.6085C128.438 44.2669 128.127 43.9999 127.756 43.8047C127.375 43.6044 126.983 43.5043 126.585 43.5043C125.919 43.5043 125.335 43.7277 124.833 44.1745C124.331 44.6213 124.026 45.1914 123.919 45.8834H129.201H129.202Z" fill="white"/>
<path d="M131.972 48.0757C132.063 48.0757 132.13 48.0962 132.172 48.136C132.215 48.1771 132.279 48.2785 132.365 48.4403C132.695 49.0682 133.209 49.3827 133.903 49.3827C134.417 49.3827 134.826 49.2043 135.134 48.8473C135.38 48.561 135.502 48.2387 135.502 47.8805C135.502 47.5223 135.403 47.2617 135.206 47.0639C135.01 46.8662 134.652 46.6788 134.133 46.499C133.352 46.2281 132.808 45.9546 132.5 45.6786C132.192 45.4025 132.038 45.0507 132.038 44.6232C132.038 44.0814 132.257 43.6436 132.696 43.3072C133.072 43.026 133.494 42.8848 133.961 42.8848C134.337 42.8848 134.716 42.9965 135.097 43.2173C135.479 43.4394 135.67 43.6615 135.67 43.8837C135.67 43.9645 135.643 44.0352 135.589 44.0942C135.535 44.1533 135.473 44.1828 135.405 44.1828C135.337 44.1828 135.258 44.1392 135.167 44.0531C134.795 43.6846 134.412 43.501 134.012 43.501C133.664 43.501 133.37 43.6076 133.128 43.822C132.885 44.0364 132.764 44.2997 132.764 44.6142C132.764 44.8684 132.867 45.0829 133.072 45.2562C133.278 45.4295 133.64 45.6105 134.159 45.8006C134.831 46.0394 135.287 46.2422 135.526 46.4091C135.993 46.7455 136.227 47.2244 136.227 47.8459C136.227 48.5495 135.968 49.1015 135.449 49.5021C135.016 49.8321 134.503 49.9977 133.911 49.9977C133.102 49.9977 132.464 49.714 131.997 49.1452C131.74 48.8319 131.611 48.5687 131.611 48.3569C131.611 48.2811 131.647 48.2143 131.718 48.1579C131.789 48.1014 131.873 48.0731 131.97 48.0731L131.972 48.0757Z" fill="white"/>
<path d="M143.486 49.1547H145.854C146.076 49.1547 146.228 49.1791 146.311 49.2279C146.393 49.2767 146.435 49.3627 146.435 49.4873C146.435 49.6118 146.394 49.6978 146.311 49.7466C146.228 49.7954 146.076 49.8198 145.854 49.8198H143.306C143.049 49.8198 142.889 49.789 142.823 49.7261C142.758 49.6645 142.725 49.5104 142.725 49.2677V39.2877C142.725 39.0656 142.748 38.9282 142.793 38.873C142.867 38.7806 142.972 38.7344 143.109 38.7344C143.256 38.7344 143.356 38.7729 143.408 38.8486C143.459 38.9244 143.485 39.0708 143.485 39.2877V49.1547H143.486Z" fill="white"/>
<path d="M148.692 43.6423V49.2697C148.692 49.4803 148.666 49.6254 148.615 49.7037C148.564 49.782 148.473 49.8218 148.342 49.8218C148.211 49.8218 148.12 49.782 148.068 49.7037C148.017 49.6254 147.991 49.4803 147.991 49.2697V43.6423H147.778C147.561 43.6423 147.412 43.6204 147.329 43.5768C147.246 43.5331 147.204 43.4548 147.204 43.3418C147.204 43.2288 147.245 43.1415 147.329 43.0979C147.411 43.0542 147.561 43.0324 147.778 43.0324H147.991V41.1566C147.991 40.946 148.017 40.8009 148.068 40.7226C148.12 40.6443 148.211 40.6045 148.342 40.6045C148.473 40.6045 148.564 40.6443 148.615 40.7226C148.666 40.8009 148.692 40.946 148.692 41.1566V43.0324H149.359C149.576 43.0324 149.724 43.0542 149.808 43.0979C149.89 43.1415 149.932 43.2224 149.932 43.3418C149.932 43.4612 149.891 43.5344 149.808 43.5768C149.726 43.6204 149.576 43.6423 149.359 43.6423H148.692Z" fill="white"/>
<path d="M157.139 48.6031C156.888 48.9601 156.608 49.2387 156.302 49.439C155.715 49.8126 155.065 49.9988 154.353 49.9988C153.264 49.9988 152.378 49.6059 151.694 48.8214C151.135 48.1769 150.856 47.368 150.856 46.3935C150.856 45.202 151.261 44.2853 152.07 43.6408C152.708 43.1375 153.463 42.8858 154.335 42.8858C155.491 42.8858 156.426 43.3275 157.139 44.2095V38.2406C157.139 38.03 157.163 37.8849 157.212 37.8066C157.261 37.7283 157.353 37.6885 157.489 37.6885C157.625 37.6885 157.719 37.7283 157.767 37.8066C157.815 37.8849 157.84 38.03 157.84 38.2406V49.2682C157.84 49.4788 157.814 49.6239 157.763 49.7022C157.711 49.7805 157.62 49.8203 157.489 49.8203C157.358 49.8203 157.259 49.7805 157.212 49.7022C157.163 49.6239 157.139 49.4788 157.139 49.2682V48.6019V48.6031ZM154.353 43.5034C153.566 43.5034 152.888 43.7987 152.318 44.388C151.822 44.9029 151.574 45.5872 151.574 46.4423C151.574 47.2974 151.859 48.0151 152.429 48.5775C152.965 49.1129 153.621 49.3812 154.395 49.3812C155.283 49.3812 156.002 49.0435 156.549 48.3656C156.971 47.8456 157.182 47.178 157.182 46.3601C157.182 45.4241 156.886 44.7116 156.294 44.225C155.719 43.7435 155.072 43.5021 154.354 43.5021L154.353 43.5034Z" fill="white"/>
<path d="M160.865 48.7246C161.041 48.7246 161.193 48.7824 161.319 48.8992C161.444 49.0161 161.507 49.1573 161.507 49.3255C161.507 49.4937 161.444 49.6375 161.319 49.7556C161.193 49.875 161.042 49.9341 160.865 49.9341C160.688 49.9341 160.538 49.875 160.412 49.7556C160.286 49.6362 160.225 49.4937 160.225 49.3255C160.225 49.1573 160.288 49.0225 160.412 48.9031C160.538 48.7837 160.688 48.7246 160.865 48.7246Z" fill="white"/>
</g>
<defs>
<clipPath id="clip0_5004_4586">
<rect width="161.541" height="50" fill="white"/>
</clipPath>
</defs>
</svg>
