<svg width="20" height="20" viewBox="0 0 20 20" fill="none" xmlns="http://www.w3.org/2000/svg">
<path d="M15.833 8.83333H10.833V3.83333C10.833 3.61232 10.7452 3.40036 10.5889 3.24408C10.4326 3.0878 10.2207 3 9.99967 3C9.77866 3 9.5667 3.0878 9.41042 3.24408C9.25414 3.40036 9.16634 3.61232 9.16634 3.83333V8.83333H4.16634C3.94533 8.83333 3.73337 8.92113 3.57709 9.07741C3.42081 9.23369 3.33301 9.44565 3.33301 9.66667C3.33301 9.88768 3.42081 10.0996 3.57709 10.2559C3.73337 10.4122 3.94533 10.5 4.16634 10.5H9.16634V15.5C9.16634 15.721 9.25414 15.933 9.41042 16.0893C9.5667 16.2455 9.77866 16.3333 9.99967 16.3333C10.2207 16.3333 10.4326 16.2455 10.5889 16.0893C10.7452 15.933 10.833 15.721 10.833 15.5V10.5H15.833C16.054 10.5 16.266 10.4122 16.4223 10.2559C16.5785 10.0996 16.6663 9.88768 16.6663 9.66667C16.6663 9.44565 16.5785 9.23369 16.4223 9.07741C16.266 8.92113 16.054 8.83333 15.833 8.83333Z" fill="#002331"/>
</svg>
