<svg width="100" height="100" viewBox="0 0 100 100" fill="none" xmlns="http://www.w3.org/2000/svg">
<circle cx="50" cy="50" r="30" fill="#00A5E3"/>
<circle cx="50" cy="50" r="30" fill="#00A5E3"/>
<g clip-path="url(#clip0_5004_4517)">
<path d="M45.6055 52.6367C45.1201 52.6367 44.7266 53.0302 44.7266 53.5156V55.2734C44.7266 55.7588 45.1201 56.1523 45.6055 56.1523C46.0909 56.1523 46.4844 55.7588 46.4844 55.2734V53.5156C46.4844 53.0302 46.0909 52.6367 45.6055 52.6367Z" fill="white"/>
<path d="M54.3945 56.1523C54.8799 56.1523 55.2734 55.7588 55.2734 55.2734V53.5156C55.2734 53.0302 54.8799 52.6367 54.3945 52.6367C53.9091 52.6367 53.5156 53.0302 53.5156 53.5156V55.2734C53.5156 55.7588 53.9091 56.1523 54.3945 56.1523Z" fill="white"/>
<path d="M50.9375 41.2109H60.5469C61.0323 41.2109 61.4258 40.8174 61.4258 40.332C61.4258 39.8466 61.0323 39.4531 60.5469 39.4531H50.9375C50.4521 39.4531 50.0586 39.8466 50.0586 40.332C50.0586 40.8174 50.4521 41.2109 50.9375 41.2109Z" fill="white"/>
<path d="M65 45.3125V38.8086C65 36.7085 63.2915 35 61.1914 35H50.293C48.1929 35 46.4844 36.7085 46.4844 38.8086V45.6055H45.3125C42.1 45.6055 39.4057 47.8654 38.7351 50.8789H38.5742V45.4543C39.5972 45.0915 40.332 44.1146 40.332 42.9688C40.332 41.5149 39.1492 40.332 37.6953 40.332C36.2414 40.332 35.0586 41.5149 35.0586 42.9688C35.0586 44.1146 35.7934 45.0915 36.8164 45.4543V51.0102C35.7631 51.356 35 52.3481 35 53.5156V57.0312C35 58.4851 36.1828 59.668 37.6367 59.668H38.7223C39.3709 62.7107 42.0792 65 45.3125 65H54.6875C57.9208 65 60.6291 62.7107 61.2777 59.668H62.3633C63.8172 59.668 65 58.4851 65 57.0312V53.5156C65 52.0617 63.8172 50.8789 62.3633 50.8789H61.2646C61.128 50.2648 60.9063 49.6732 60.6056 49.1211H61.1914C63.2915 49.1211 65 47.4126 65 45.3125ZM48.2422 38.8086C48.2422 37.6778 49.1622 36.7578 50.293 36.7578H61.1914C62.3222 36.7578 63.2422 37.6778 63.2422 38.8086V45.3125C63.2422 46.4433 62.3222 47.3633 61.1914 47.3633H50.8789C50.7424 47.3633 50.6079 47.395 50.4859 47.456L48.2422 48.5779V38.8086ZM37.6953 42.0898C38.1799 42.0898 38.5742 42.4841 38.5742 42.9688C38.5742 43.4534 38.1799 43.8477 37.6953 43.8477C37.2107 43.8477 36.8164 43.4534 36.8164 42.9688C36.8164 42.4841 37.2107 42.0898 37.6953 42.0898ZM36.7578 57.0312V53.5156C36.7578 53.031 37.1521 52.6367 37.6367 52.6367H38.5742V57.9102H37.6367C37.1521 57.9102 36.7578 57.5159 36.7578 57.0312ZM63.2422 53.5156V57.0312C63.2422 57.5159 62.8479 57.9102 62.3633 57.9102H61.4258V52.6367H62.3633C62.8479 52.6367 63.2422 53.031 63.2422 53.5156ZM59.668 52.3438V58.2617C59.668 61.0079 57.4337 63.2422 54.6875 63.2422H45.3125C42.5663 63.2422 40.332 61.0079 40.332 58.2617V52.3438C40.332 49.5975 42.5663 47.3633 45.3125 47.3633H46.4844V50C46.4844 50.6523 47.1724 51.0781 47.7563 50.7861L51.0864 49.1211H58.4833C59.2473 50.0202 59.668 51.1604 59.668 52.3438Z" fill="white"/>
<path d="M50.9375 44.7266H60.5469C61.0323 44.7266 61.4258 44.333 61.4258 43.8477C61.4258 43.3623 61.0323 42.9688 60.5469 42.9688H50.9375C50.4521 42.9688 50.0586 43.3623 50.0586 43.8477C50.0586 44.333 50.4521 44.7266 50.9375 44.7266Z" fill="white"/>
<path d="M47.3633 58.7891C47.3633 59.2745 47.7568 59.668 48.2422 59.668H51.7578C52.2432 59.668 52.6367 59.2745 52.6367 58.7891C52.6367 58.3037 52.2432 57.9102 51.7578 57.9102H48.2422C47.7568 57.9102 47.3633 58.3037 47.3633 58.7891Z" fill="white"/>
</g>
<defs>
<clipPath id="clip0_5004_4517">
<rect width="30" height="30" fill="white" transform="translate(35 35)"/>
</clipPath>
</defs>
</svg>
